<?xml version="1.0" encoding="utf-8" standalone="no"?>
<!DOCTYPE svg PUBLIC "-//W3C//DTD SVG 1.1//EN"
  "http://www.w3.org/Graphics/SVG/1.1/DTD/svg11.dtd">
<!-- Created with matplotlib (http://matplotlib.org/) -->
<svg height="288pt" version="1.1" viewBox="0 0 576 288" width="576pt" xmlns="http://www.w3.org/2000/svg" xmlns:xlink="http://www.w3.org/1999/xlink">
 <defs>
  <style type="text/css">
*{stroke-linecap:butt;stroke-linejoin:round;}
  </style>
 </defs>
 <g id="figure_1">
  <g id="patch_1">
   <path d="M 0 288 
L 576 288 
L 576 0 
L 0 0 
z
" style="fill:#ffffff;"/>
  </g>
  <g id="axes_1">
   <g id="patch_2">
    <path d="M 72 256.32 
L 518.4 256.32 
L 518.4 34.56 
L 72 34.56 
z
" style="fill:#ffffff;"/>
   </g>
   <g id="matplotlib.axis_1">
    <g id="xtick_1">
     <g id="line2d_1">
      <defs>
       <path d="M 0 0 
L 0 3.5 
" id="m2eee1ef24e" style="stroke:#000000;stroke-width:0.8;"/>
      </defs>
      <g>
       <use style="stroke:#000000;stroke-width:0.8;" x="132.872727" xlink:href="#m2eee1ef24e" y="256.32"/>
      </g>
     </g>
     <g id="text_1">
      <!-- −4 -->
      <defs>
       <path d="M 10.59375 35.5 
L 73.1875 35.5 
L 73.1875 27.203125 
L 10.59375 27.203125 
z
" id="DejaVuSans-2212"/>
       <path d="M 37.796875 64.3125 
L 12.890625 25.390625 
L 37.796875 25.390625 
z
M 35.203125 72.90625 
L 47.609375 72.90625 
L 47.609375 25.390625 
L 58.015625 25.390625 
L 58.015625 17.1875 
L 47.609375 17.1875 
L 47.609375 0 
L 37.796875 0 
L 37.796875 17.1875 
L 4.890625 17.1875 
L 4.890625 26.703125 
z
" id="DejaVuSans-34"/>
      </defs>
      <g transform="translate(125.501634 270.918437)scale(0.1 -0.1)">
       <use xlink:href="#DejaVuSans-2212"/>
       <use x="83.789062" xlink:href="#DejaVuSans-34"/>
      </g>
     </g>
    </g>
    <g id="xtick_2">
     <g id="line2d_2">
      <g>
       <use style="stroke:#000000;stroke-width:0.8;" x="214.036364" xlink:href="#m2eee1ef24e" y="256.32"/>
      </g>
     </g>
     <g id="text_2">
      <!-- −2 -->
      <defs>
       <path d="M 19.1875 8.296875 
L 53.609375 8.296875 
L 53.609375 0 
L 7.328125 0 
L 7.328125 8.296875 
Q 12.9375 14.109375 22.625 23.890625 
Q 32.328125 33.6875 34.8125 36.53125 
Q 39.546875 41.84375 41.421875 45.53125 
Q 43.3125 49.21875 43.3125 52.78125 
Q 43.3125 58.59375 39.234375 62.25 
Q 35.15625 65.921875 28.609375 65.921875 
Q 23.96875 65.921875 18.8125 64.3125 
Q 13.671875 62.703125 7.8125 59.421875 
L 7.8125 69.390625 
Q 13.765625 71.78125 18.9375 73 
Q 24.125 74.21875 28.421875 74.21875 
Q 39.75 74.21875 46.484375 68.546875 
Q 53.21875 62.890625 53.21875 53.421875 
Q 53.21875 48.921875 51.53125 44.890625 
Q 49.859375 40.875 45.40625 35.40625 
Q 44.1875 33.984375 37.640625 27.21875 
Q 31.109375 20.453125 19.1875 8.296875 
z
" id="DejaVuSans-32"/>
      </defs>
      <g transform="translate(206.66527 270.918437)scale(0.1 -0.1)">
       <use xlink:href="#DejaVuSans-2212"/>
       <use x="83.789062" xlink:href="#DejaVuSans-32"/>
      </g>
     </g>
    </g>
    <g id="xtick_3">
     <g id="line2d_3">
      <g>
       <use style="stroke:#000000;stroke-width:0.8;" x="295.2" xlink:href="#m2eee1ef24e" y="256.32"/>
      </g>
     </g>
     <g id="text_3">
      <!-- 0 -->
      <defs>
       <path d="M 31.78125 66.40625 
Q 24.171875 66.40625 20.328125 58.90625 
Q 16.5 51.421875 16.5 36.375 
Q 16.5 21.390625 20.328125 13.890625 
Q 24.171875 6.390625 31.78125 6.390625 
Q 39.453125 6.390625 43.28125 13.890625 
Q 47.125 21.390625 47.125 36.375 
Q 47.125 51.421875 43.28125 58.90625 
Q 39.453125 66.40625 31.78125 66.40625 
z
M 31.78125 74.21875 
Q 44.046875 74.21875 50.515625 64.515625 
Q 56.984375 54.828125 56.984375 36.375 
Q 56.984375 17.96875 50.515625 8.265625 
Q 44.046875 -1.421875 31.78125 -1.421875 
Q 19.53125 -1.421875 13.0625 8.265625 
Q 6.59375 17.96875 6.59375 36.375 
Q 6.59375 54.828125 13.0625 64.515625 
Q 19.53125 74.21875 31.78125 74.21875 
z
" id="DejaVuSans-30"/>
      </defs>
      <g transform="translate(292.01875 270.918437)scale(0.1 -0.1)">
       <use xlink:href="#DejaVuSans-30"/>
      </g>
     </g>
    </g>
    <g id="xtick_4">
     <g id="line2d_4">
      <g>
       <use style="stroke:#000000;stroke-width:0.8;" x="376.363636" xlink:href="#m2eee1ef24e" y="256.32"/>
      </g>
     </g>
     <g id="text_4">
      <!-- 2 -->
      <g transform="translate(373.182386 270.918437)scale(0.1 -0.1)">
       <use xlink:href="#DejaVuSans-32"/>
      </g>
     </g>
    </g>
    <g id="xtick_5">
     <g id="line2d_5">
      <g>
       <use style="stroke:#000000;stroke-width:0.8;" x="457.527273" xlink:href="#m2eee1ef24e" y="256.32"/>
      </g>
     </g>
     <g id="text_5">
      <!-- 4 -->
      <g transform="translate(454.346023 270.918437)scale(0.1 -0.1)">
       <use xlink:href="#DejaVuSans-34"/>
      </g>
     </g>
    </g>
    <g id="text_6">
     <!-- $x$ -->
     <defs>
      <path d="M 60.015625 54.6875 
L 34.90625 27.875 
L 50.296875 0 
L 39.984375 0 
L 28.421875 21.6875 
L 8.296875 0 
L -2.59375 0 
L 24.3125 28.8125 
L 10.015625 54.6875 
L 20.3125 54.6875 
L 30.8125 34.90625 
L 49.125 54.6875 
z
" id="DejaVuSans-Oblique-78"/>
     </defs>
     <g transform="translate(292.2 284.596563)scale(0.1 -0.1)">
      <use transform="translate(0 0.3125)" xlink:href="#DejaVuSans-Oblique-78"/>
     </g>
    </g>
   </g>
   <g id="matplotlib.axis_2">
    <g id="ytick_1">
     <g id="line2d_6">
      <defs>
       <path d="M 0 0 
L -3.5 0 
" id="mfbb0b74164" style="stroke:#000000;stroke-width:0.8;"/>
      </defs>
      <g>
       <use style="stroke:#000000;stroke-width:0.8;" x="72" xlink:href="#mfbb0b74164" y="246.24"/>
      </g>
     </g>
     <g id="text_7">
      <!-- 0.0 -->
      <defs>
       <path d="M 10.6875 12.40625 
L 21 12.40625 
L 21 0 
L 10.6875 0 
z
" id="DejaVuSans-2e"/>
      </defs>
      <g transform="translate(49.096875 250.039219)scale(0.1 -0.1)">
       <use xlink:href="#DejaVuSans-30"/>
       <use x="63.623047" xlink:href="#DejaVuSans-2e"/>
       <use x="95.410156" xlink:href="#DejaVuSans-30"/>
      </g>
     </g>
    </g>
    <g id="ytick_2">
     <g id="line2d_7">
      <g>
       <use style="stroke:#000000;stroke-width:0.8;" x="72" xlink:href="#mfbb0b74164" y="220.971921"/>
      </g>
     </g>
     <g id="text_8">
      <!-- 0.1 -->
      <defs>
       <path d="M 12.40625 8.296875 
L 28.515625 8.296875 
L 28.515625 63.921875 
L 10.984375 60.40625 
L 10.984375 69.390625 
L 28.421875 72.90625 
L 38.28125 72.90625 
L 38.28125 8.296875 
L 54.390625 8.296875 
L 54.390625 0 
L 12.40625 0 
z
" id="DejaVuSans-31"/>
      </defs>
      <g transform="translate(49.096875 224.77114)scale(0.1 -0.1)">
       <use xlink:href="#DejaVuSans-30"/>
       <use x="63.623047" xlink:href="#DejaVuSans-2e"/>
       <use x="95.410156" xlink:href="#DejaVuSans-31"/>
      </g>
     </g>
    </g>
    <g id="ytick_3">
     <g id="line2d_8">
      <g>
       <use style="stroke:#000000;stroke-width:0.8;" x="72" xlink:href="#mfbb0b74164" y="195.703842"/>
      </g>
     </g>
     <g id="text_9">
      <!-- 0.2 -->
      <g transform="translate(49.096875 199.503061)scale(0.1 -0.1)">
       <use xlink:href="#DejaVuSans-30"/>
       <use x="63.623047" xlink:href="#DejaVuSans-2e"/>
       <use x="95.410156" xlink:href="#DejaVuSans-32"/>
      </g>
     </g>
    </g>
    <g id="ytick_4">
     <g id="line2d_9">
      <g>
       <use style="stroke:#000000;stroke-width:0.8;" x="72" xlink:href="#mfbb0b74164" y="170.435763"/>
      </g>
     </g>
     <g id="text_10">
      <!-- 0.3 -->
      <defs>
       <path d="M 40.578125 39.3125 
Q 47.65625 37.796875 51.625 33 
Q 55.609375 28.21875 55.609375 21.1875 
Q 55.609375 10.40625 48.1875 4.484375 
Q 40.765625 -1.421875 27.09375 -1.421875 
Q 22.515625 -1.421875 17.65625 -0.515625 
Q 12.796875 0.390625 7.625 2.203125 
L 7.625 11.71875 
Q 11.71875 9.328125 16.59375 8.109375 
Q 21.484375 6.890625 26.8125 6.890625 
Q 36.078125 6.890625 40.9375 10.546875 
Q 45.796875 14.203125 45.796875 21.1875 
Q 45.796875 27.640625 41.28125 31.265625 
Q 36.765625 34.90625 28.71875 34.90625 
L 20.21875 34.90625 
L 20.21875 43.015625 
L 29.109375 43.015625 
Q 36.375 43.015625 40.234375 45.921875 
Q 44.09375 48.828125 44.09375 54.296875 
Q 44.09375 59.90625 40.109375 62.90625 
Q 36.140625 65.921875 28.71875 65.921875 
Q 24.65625 65.921875 20.015625 65.03125 
Q 15.375 64.15625 9.8125 62.3125 
L 9.8125 71.09375 
Q 15.4375 72.65625 20.34375 73.4375 
Q 25.25 74.21875 29.59375 74.21875 
Q 40.828125 74.21875 47.359375 69.109375 
Q 53.90625 64.015625 53.90625 55.328125 
Q 53.90625 49.265625 50.4375 45.09375 
Q 46.96875 40.921875 40.578125 39.3125 
z
" id="DejaVuSans-33"/>
      </defs>
      <g transform="translate(49.096875 174.234982)scale(0.1 -0.1)">
       <use xlink:href="#DejaVuSans-30"/>
       <use x="63.623047" xlink:href="#DejaVuSans-2e"/>
       <use x="95.410156" xlink:href="#DejaVuSans-33"/>
      </g>
     </g>
    </g>
    <g id="ytick_5">
     <g id="line2d_10">
      <g>
       <use style="stroke:#000000;stroke-width:0.8;" x="72" xlink:href="#mfbb0b74164" y="145.167684"/>
      </g>
     </g>
     <g id="text_11">
      <!-- 0.4 -->
      <g transform="translate(49.096875 148.966903)scale(0.1 -0.1)">
       <use xlink:href="#DejaVuSans-30"/>
       <use x="63.623047" xlink:href="#DejaVuSans-2e"/>
       <use x="95.410156" xlink:href="#DejaVuSans-34"/>
      </g>
     </g>
    </g>
    <g id="ytick_6">
     <g id="line2d_11">
      <g>
       <use style="stroke:#000000;stroke-width:0.8;" x="72" xlink:href="#mfbb0b74164" y="119.899605"/>
      </g>
     </g>
     <g id="text_12">
      <!-- 0.5 -->
      <defs>
       <path d="M 10.796875 72.90625 
L 49.515625 72.90625 
L 49.515625 64.59375 
L 19.828125 64.59375 
L 19.828125 46.734375 
Q 21.96875 47.46875 24.109375 47.828125 
Q 26.265625 48.1875 28.421875 48.1875 
Q 40.625 48.1875 47.75 41.5 
Q 54.890625 34.8125 54.890625 23.390625 
Q 54.890625 11.625 47.5625 5.09375 
Q 40.234375 -1.421875 26.90625 -1.421875 
Q 22.3125 -1.421875 17.546875 -0.640625 
Q 12.796875 0.140625 7.71875 1.703125 
L 7.71875 11.625 
Q 12.109375 9.234375 16.796875 8.0625 
Q 21.484375 6.890625 26.703125 6.890625 
Q 35.15625 6.890625 40.078125 11.328125 
Q 45.015625 15.765625 45.015625 23.390625 
Q 45.015625 31 40.078125 35.4375 
Q 35.15625 39.890625 26.703125 39.890625 
Q 22.75 39.890625 18.8125 39.015625 
Q 14.890625 38.140625 10.796875 36.28125 
z
" id="DejaVuSans-35"/>
      </defs>
      <g transform="translate(49.096875 123.698824)scale(0.1 -0.1)">
       <use xlink:href="#DejaVuSans-30"/>
       <use x="63.623047" xlink:href="#DejaVuSans-2e"/>
       <use x="95.410156" xlink:href="#DejaVuSans-35"/>
      </g>
     </g>
    </g>
    <g id="ytick_7">
     <g id="line2d_12">
      <g>
       <use style="stroke:#000000;stroke-width:0.8;" x="72" xlink:href="#mfbb0b74164" y="94.631527"/>
      </g>
     </g>
     <g id="text_13">
      <!-- 0.6 -->
      <defs>
       <path d="M 33.015625 40.375 
Q 26.375 40.375 22.484375 35.828125 
Q 18.609375 31.296875 18.609375 23.390625 
Q 18.609375 15.53125 22.484375 10.953125 
Q 26.375 6.390625 33.015625 6.390625 
Q 39.65625 6.390625 43.53125 10.953125 
Q 47.40625 15.53125 47.40625 23.390625 
Q 47.40625 31.296875 43.53125 35.828125 
Q 39.65625 40.375 33.015625 40.375 
z
M 52.59375 71.296875 
L 52.59375 62.3125 
Q 48.875 64.0625 45.09375 64.984375 
Q 41.3125 65.921875 37.59375 65.921875 
Q 27.828125 65.921875 22.671875 59.328125 
Q 17.53125 52.734375 16.796875 39.40625 
Q 19.671875 43.65625 24.015625 45.921875 
Q 28.375 48.1875 33.59375 48.1875 
Q 44.578125 48.1875 50.953125 41.515625 
Q 57.328125 34.859375 57.328125 23.390625 
Q 57.328125 12.15625 50.6875 5.359375 
Q 44.046875 -1.421875 33.015625 -1.421875 
Q 20.359375 -1.421875 13.671875 8.265625 
Q 6.984375 17.96875 6.984375 36.375 
Q 6.984375 53.65625 15.1875 63.9375 
Q 23.390625 74.21875 37.203125 74.21875 
Q 40.921875 74.21875 44.703125 73.484375 
Q 48.484375 72.75 52.59375 71.296875 
z
" id="DejaVuSans-36"/>
      </defs>
      <g transform="translate(49.096875 98.430745)scale(0.1 -0.1)">
       <use xlink:href="#DejaVuSans-30"/>
       <use x="63.623047" xlink:href="#DejaVuSans-2e"/>
       <use x="95.410156" xlink:href="#DejaVuSans-36"/>
      </g>
     </g>
    </g>
    <g id="ytick_8">
     <g id="line2d_13">
      <g>
       <use style="stroke:#000000;stroke-width:0.8;" x="72" xlink:href="#mfbb0b74164" y="69.363448"/>
      </g>
     </g>
     <g id="text_14">
      <!-- 0.7 -->
      <defs>
       <path d="M 8.203125 72.90625 
L 55.078125 72.90625 
L 55.078125 68.703125 
L 28.609375 0 
L 18.3125 0 
L 43.21875 64.59375 
L 8.203125 64.59375 
z
" id="DejaVuSans-37"/>
      </defs>
      <g transform="translate(49.096875 73.162666)scale(0.1 -0.1)">
       <use xlink:href="#DejaVuSans-30"/>
       <use x="63.623047" xlink:href="#DejaVuSans-2e"/>
       <use x="95.410156" xlink:href="#DejaVuSans-37"/>
      </g>
     </g>
    </g>
    <g id="ytick_9">
     <g id="line2d_14">
      <g>
       <use style="stroke:#000000;stroke-width:0.8;" x="72" xlink:href="#mfbb0b74164" y="44.095369"/>
      </g>
     </g>
     <g id="text_15">
      <!-- 0.8 -->
      <defs>
       <path d="M 31.78125 34.625 
Q 24.75 34.625 20.71875 30.859375 
Q 16.703125 27.09375 16.703125 20.515625 
Q 16.703125 13.921875 20.71875 10.15625 
Q 24.75 6.390625 31.78125 6.390625 
Q 38.8125 6.390625 42.859375 10.171875 
Q 46.921875 13.96875 46.921875 20.515625 
Q 46.921875 27.09375 42.890625 30.859375 
Q 38.875 34.625 31.78125 34.625 
z
M 21.921875 38.8125 
Q 15.578125 40.375 12.03125 44.71875 
Q 8.5 49.078125 8.5 55.328125 
Q 8.5 64.0625 14.71875 69.140625 
Q 20.953125 74.21875 31.78125 74.21875 
Q 42.671875 74.21875 48.875 69.140625 
Q 55.078125 64.0625 55.078125 55.328125 
Q 55.078125 49.078125 51.53125 44.71875 
Q 48 40.375 41.703125 38.8125 
Q 48.828125 37.15625 52.796875 32.3125 
Q 56.78125 27.484375 56.78125 20.515625 
Q 56.78125 9.90625 50.3125 4.234375 
Q 43.84375 -1.421875 31.78125 -1.421875 
Q 19.734375 -1.421875 13.25 4.234375 
Q 6.78125 9.90625 6.78125 20.515625 
Q 6.78125 27.484375 10.78125 32.3125 
Q 14.796875 37.15625 21.921875 38.8125 
z
M 18.3125 54.390625 
Q 18.3125 48.734375 21.84375 45.5625 
Q 25.390625 42.390625 31.78125 42.390625 
Q 38.140625 42.390625 41.71875 45.5625 
Q 45.3125 48.734375 45.3125 54.390625 
Q 45.3125 60.0625 41.71875 63.234375 
Q 38.140625 66.40625 31.78125 66.40625 
Q 25.390625 66.40625 21.84375 63.234375 
Q 18.3125 60.0625 18.3125 54.390625 
z
" id="DejaVuSans-38"/>
      </defs>
      <g transform="translate(49.096875 47.894587)scale(0.1 -0.1)">
       <use xlink:href="#DejaVuSans-30"/>
       <use x="63.623047" xlink:href="#DejaVuSans-2e"/>
       <use x="95.410156" xlink:href="#DejaVuSans-38"/>
      </g>
     </g>
    </g>
    <g id="text_16">
     <!-- $\varphi_{\mu, \sigma^2}(x)$ -->
     <defs>
      <path d="M 46.390625 47.40625 
Q 43.21875 47.40625 41.796875 40.328125 
L 35.296875 6.84375 
Q 39.890625 6.84375 45.5625 11.921875 
Q 50.6875 16.453125 52.734375 27.34375 
Q 54.640625 37.5 51.5625 42.96875 
Q 49.03125 47.40625 46.390625 47.40625 
z
M 47.859375 55.078125 
Q 54.890625 55.078125 59.671875 48.640625 
Q 64.796875 41.75 62.203125 27.34375 
Q 59.8125 14.109375 51.421875 6.25 
Q 43.5 -1.171875 33.734375 -1.171875 
L 29.9375 -20.796875 
L 21 -20.796875 
L 24.8125 -1.21875 
Q 15.046875 -1.21875 10.015625 6.25 
Q 4.828125 13.875 7.421875 27.296875 
Q 10.109375 41.265625 18.21875 48.390625 
Q 24.3125 53.71875 32.5625 55.078125 
L 31 47.125 
Q 27.59375 46 24.03125 42.1875 
Q 18.65625 36.578125 16.890625 27.296875 
Q 15.046875 17.4375 18.0625 11.8125 
Q 20.84375 6.78125 26.375 6.78125 
L 32.859375 40.328125 
Q 35.75 55.078125 47.859375 55.078125 
z
" id="DejaVuSans-Oblique-3c6"/>
      <path d="M -1.3125 -20.796875 
L 13.375 54.6875 
L 22.40625 54.6875 
L 15.765625 20.65625 
Q 15.578125 19.625 15.421875 18.359375 
Q 15.28125 17.09375 15.28125 15.828125 
Q 15.28125 11.28125 18.140625 8.828125 
Q 21 6.390625 26.3125 6.390625 
Q 33.546875 6.390625 37.984375 10.484375 
Q 42.4375 14.59375 44 22.796875 
L 50.203125 54.6875 
L 59.1875 54.6875 
L 51.03125 12.640625 
Q 50.828125 11.71875 50.75 11.03125 
Q 50.6875 10.359375 50.6875 9.8125 
Q 50.6875 8.296875 51.296875 7.59375 
Q 51.90625 6.890625 53.21875 6.890625 
Q 53.71875 6.890625 54.5625 7.125 
Q 55.421875 7.375 56.984375 8.015625 
L 55.609375 0.78125 
Q 53.46875 -0.296875 51.515625 -0.859375 
Q 49.5625 -1.421875 47.703125 -1.421875 
Q 44.484375 -1.421875 42.65625 0.625 
Q 40.828125 2.6875 40.828125 6.296875 
Q 38.09375 2.390625 34.296875 0.484375 
Q 30.515625 -1.421875 25.390625 -1.421875 
Q 20.84375 -1.421875 17.453125 0.671875 
Q 14.0625 2.78125 12.984375 6.203125 
L 7.71875 -20.796875 
z
" id="DejaVuSans-Oblique-3bc"/>
      <path d="M 11.71875 12.40625 
L 22.015625 12.40625 
L 22.015625 4 
L 14.015625 -11.625 
L 7.71875 -11.625 
L 11.71875 4 
z
" id="DejaVuSans-2c"/>
      <path d="M 34.671875 47.5625 
Q 27.25 47.5625 22.21875 42.1875 
Q 16.890625 36.578125 15.140625 27.296875 
Q 13.1875 17.484375 16.3125 11.8125 
Q 19.390625 6.203125 26.65625 6.203125 
Q 33.84375 6.203125 39.109375 11.859375 
Q 44.4375 17.53125 46.34375 27.296875 
Q 48.046875 36.234375 45.015625 42.1875 
Q 42.1875 47.5625 34.671875 47.5625 
z
M 36.078125 54.734375 
L 65.921875 54.6875 
L 64.15625 45.703125 
L 54.109375 45.703125 
Q 57.90625 38.09375 55.859375 27.296875 
Q 53.21875 13.875 45.0625 6.25 
Q 36.859375 -1.421875 25.140625 -1.421875 
Q 13.375 -1.421875 8.203125 6.25 
Q 3.03125 13.875 5.671875 27.296875 
Q 8.25 40.765625 16.40625 48.390625 
Q 23.1875 54.734375 36.078125 54.734375 
z
" id="DejaVuSans-Oblique-3c3"/>
      <path d="M 31 75.875 
Q 24.46875 64.65625 21.28125 53.65625 
Q 18.109375 42.671875 18.109375 31.390625 
Q 18.109375 20.125 21.3125 9.0625 
Q 24.515625 -2 31 -13.1875 
L 23.1875 -13.1875 
Q 15.875 -1.703125 12.234375 9.375 
Q 8.59375 20.453125 8.59375 31.390625 
Q 8.59375 42.28125 12.203125 53.3125 
Q 15.828125 64.359375 23.1875 75.875 
z
" id="DejaVuSans-28"/>
      <path d="M 8.015625 75.875 
L 15.828125 75.875 
Q 23.140625 64.359375 26.78125 53.3125 
Q 30.421875 42.28125 30.421875 31.390625 
Q 30.421875 20.453125 26.78125 9.375 
Q 23.140625 -1.703125 15.828125 -13.1875 
L 8.015625 -13.1875 
Q 14.5 -2 17.703125 9.0625 
Q 20.90625 20.125 20.90625 31.390625 
Q 20.90625 42.671875 17.703125 53.65625 
Q 14.5 64.65625 8.015625 75.875 
z
" id="DejaVuSans-29"/>
     </defs>
     <g transform="translate(41.996875 163.79)rotate(-90)scale(0.1 -0.1)">
      <use transform="translate(0 0.125)" xlink:href="#DejaVuSans-Oblique-3c6"/>
      <use transform="translate(65.966797 -16.28125)scale(0.7)" xlink:href="#DejaVuSans-Oblique-3bc"/>
      <use transform="translate(110.50293 -16.28125)scale(0.7)" xlink:href="#DejaVuSans-2c"/>
      <use transform="translate(146.391602 -16.28125)scale(0.7)" xlink:href="#DejaVuSans-Oblique-3c3"/>
      <use transform="translate(193.887732 10.515625)scale(0.49)" xlink:href="#DejaVuSans-32"/>
      <use transform="translate(229.711462 0.125)" xlink:href="#DejaVuSans-28"/>
      <use transform="translate(268.725134 0.125)" xlink:href="#DejaVuSans-Oblique-78"/>
      <use transform="translate(327.904822 0.125)" xlink:href="#DejaVuSans-29"/>
     </g>
    </g>
   </g>
   <g id="line2d_15">
    <path clip-path="url(#p29342e8d1c)" d="M 92.290909 245.120157 
L 98.384275 244.502641 
L 103.665192 243.743847 
L 108.133661 242.892689 
L 112.195905 241.915185 
L 116.258149 240.707933 
L 119.914169 239.394665 
L 123.570188 237.838108 
L 126.819984 236.22817 
L 130.069779 234.386004 
L 133.319574 232.294598 
L 136.569369 229.939075 
L 139.819165 227.307481 
L 143.06896 224.391607 
L 146.318755 221.187819 
L 149.974775 217.241814 
L 153.630794 212.945592 
L 157.693038 207.789285 
L 162.161507 201.708768 
L 167.442424 194.093015 
L 176.379361 180.699824 
L 182.472727 171.745945 
L 186.941196 165.575514 
L 190.597215 160.921567 
L 193.847011 157.168753 
L 196.690581 154.235144 
L 199.127928 152.012783 
L 201.565274 150.084222 
L 204.002621 148.469504 
L 206.033743 147.376008 
L 208.064865 146.520393 
L 210.095987 145.909019 
L 212.127109 145.54645 
L 214.158231 145.435404 
L 216.189353 145.576714 
L 218.220475 145.96932 
L 220.251597 146.61028 
L 222.282719 147.494811 
L 224.313841 148.616343 
L 226.344963 149.966605 
L 228.78231 151.874835 
L 231.219656 154.078289 
L 234.063227 156.991863 
L 236.906798 160.236627 
L 240.156593 164.294869 
L 243.812613 169.224565 
L 248.281081 175.63138 
L 255.999345 187.178737 
L 263.717609 198.592699 
L 268.592301 205.404263 
L 272.654545 210.724168 
L 276.310565 215.184052 
L 279.966585 219.303402 
L 283.622604 223.065207 
L 286.8724 226.103295 
L 290.122195 228.854951 
L 293.37199 231.326542 
L 296.621785 233.528531 
L 299.871581 235.474652 
L 303.121376 237.181102 
L 306.777396 238.836713 
L 310.433415 240.23865 
L 314.089435 241.414432 
L 318.151679 242.488615 
L 322.620147 243.428921 
L 327.49484 244.216252 
L 332.775758 244.845317 
L 338.869124 245.351245 
L 346.587387 245.753763 
L 356.336773 246.024459 
L 370.960852 246.182911 
L 401.833907 246.237744 
L 498.109091 246.24 
L 498.109091 246.24 
" style="fill:none;opacity:0.7;stroke:#1f77b4;stroke-linecap:square;stroke-width:3;"/>
   </g>
   <g id="line2d_16">
    <path clip-path="url(#p29342e8d1c)" d="M 92.290909 246.239624 
L 145.506306 246.128086 
L 158.911712 245.881597 
L 167.848649 245.507115 
L 174.754464 245.007837 
L 180.441605 244.390559 
L 185.722523 243.590418 
L 190.190991 242.695548 
L 194.253235 241.670556 
L 198.315479 240.407888 
L 201.971499 239.037696 
L 205.627518 237.417488 
L 208.877314 235.745477 
L 212.127109 233.836389 
L 215.376904 231.673725 
L 218.626699 229.243331 
L 221.876495 226.534199 
L 225.12629 223.539298 
L 228.376085 220.256392 
L 232.032105 216.223288 
L 235.688124 211.844474 
L 239.750369 206.605104 
L 244.218837 200.448496 
L 249.499754 192.770659 
L 266.154955 168.212294 
L 269.810975 163.35246 
L 273.06077 159.372976 
L 275.904341 156.209366 
L 278.747912 153.387549 
L 281.185258 151.270408 
L 283.622604 149.45475 
L 285.653726 148.185774 
L 287.684848 147.148697 
L 289.715971 146.351186 
L 291.747093 145.799178 
L 293.778215 145.496798 
L 295.809337 145.446312 
L 297.840459 145.648101 
L 299.871581 146.100651 
L 301.902703 146.800573 
L 303.933825 147.742648 
L 305.964947 148.919892 
L 307.996069 150.323638 
L 310.433415 152.292594 
L 312.870762 154.552464 
L 315.714333 157.525748 
L 318.557903 160.823026 
L 321.807699 164.931848 
L 325.463718 169.905874 
L 330.338411 176.948198 
L 348.618509 203.852897 
L 353.086978 209.793615 
L 357.149222 214.801073 
L 360.805242 218.951542 
L 364.461261 222.745542 
L 367.711057 225.81244 
L 370.960852 228.592529 
L 374.210647 231.091716 
L 377.460442 233.320095 
L 380.710238 235.291108 
L 383.960033 237.020742 
L 387.616052 238.700223 
L 391.272072 240.123596 
L 394.928092 241.318369 
L 398.990336 242.410868 
L 403.458804 243.368131 
L 408.333497 244.170498 
L 413.614414 244.812298 
L 419.707781 245.329109 
L 427.01982 245.724372 
L 436.769206 246.010439 
L 450.98706 246.176401 
L 479.828993 246.236772 
L 498.109091 246.239624 
L 498.109091 246.239624 
" style="fill:none;opacity:0.7;stroke:#ff7f0e;stroke-linecap:square;stroke-width:3;"/>
   </g>
   <g id="line2d_17">
    <path clip-path="url(#p29342e8d1c)" d="M 92.290909 246.24 
L 216.189353 246.13719 
L 222.688943 245.900023 
L 226.751188 245.55852 
L 230.000983 245.085155 
L 232.844554 244.446002 
L 235.2819 243.663659 
L 237.313022 242.794907 
L 239.344144 241.679137 
L 241.375266 240.2622 
L 243.000164 238.871083 
L 244.625061 237.214299 
L 246.249959 235.25568 
L 247.874857 232.957484 
L 249.499754 230.281118 
L 251.124652 227.188046 
L 252.74955 223.64088 
L 254.374447 219.604645 
L 255.999345 215.048203 
L 258.030467 208.582516 
L 260.061589 201.22984 
L 262.092711 192.977914 
L 264.123833 183.841501 
L 266.561179 171.777581 
L 269.40475 156.378436 
L 273.06077 135.066088 
L 280.372809 91.870059 
L 282.810156 78.919192 
L 284.841278 69.262051 
L 286.466175 62.467155 
L 288.091073 56.631209 
L 289.309746 52.948114 
L 290.528419 49.902983 
L 291.747093 47.52797 
L 292.559541 46.329711 
L 293.37199 45.446398 
L 294.184439 44.882259 
L 294.996888 44.64 
L 295.809337 44.720785 
L 296.621785 45.124227 
L 297.434234 45.848387 
L 298.246683 46.889795 
L 299.059132 48.243475 
L 300.277805 50.845021 
L 301.496478 54.106702 
L 302.715152 57.994205 
L 304.340049 64.080472 
L 305.964947 71.096732 
L 307.996069 80.985264 
L 310.433415 94.14242 
L 313.68321 113.092666 
L 321.401474 158.654187 
L 324.245045 173.866684 
L 326.682391 185.737812 
L 328.713514 194.699957 
L 330.744636 202.772282 
L 332.775758 209.945798 
L 334.80688 216.237599 
L 336.838002 221.68595 
L 338.462899 225.473483 
L 340.087797 228.789048 
L 341.712695 231.668994 
L 343.337592 234.151431 
L 344.96249 236.275048 
L 346.587387 238.078115 
L 348.212285 239.597667 
L 350.243407 241.151768 
L 352.274529 242.381117 
L 354.305651 243.342626 
L 356.742998 244.212728 
L 359.180344 244.841852 
L 362.023915 245.350019 
L 365.679934 245.756243 
L 370.554627 246.035972 
L 377.866667 246.189848 
L 394.115643 246.238606 
L 498.109091 246.24 
L 498.109091 246.24 
" style="fill:none;opacity:0.7;stroke:#2ca02c;stroke-linecap:square;stroke-width:3;"/>
   </g>
   <g id="line2d_18">
    <path clip-path="url(#p29342e8d1c)" d="M 92.290909 245.980197 
L 108.133661 245.642001 
L 119.914169 245.176218 
L 129.663554 244.574387 
L 138.194267 243.825557 
L 145.506306 242.972342 
L 152.412121 241.948577 
L 158.911712 240.758525 
L 165.005078 239.415774 
L 170.692219 237.942649 
L 176.379361 236.2392 
L 182.066503 234.290787 
L 187.34742 232.252896 
L 192.628337 229.990211 
L 198.315479 227.30255 
L 204.002621 224.362156 
L 210.095987 220.949449 
L 216.595577 217.044729 
L 224.313841 212.126413 
L 235.688124 204.568012 
L 247.062408 197.081572 
L 253.561998 193.054624 
L 259.24914 189.791725 
L 264.123833 187.24735 
L 268.592301 185.159449 
L 272.654545 183.491402 
L 276.71679 182.064235 
L 280.372809 181.000932 
L 284.028829 180.15881 
L 287.684848 179.546829 
L 291.340868 179.171548 
L 294.996888 179.037007 
L 298.652907 179.144661 
L 302.308927 179.493347 
L 305.964947 180.079306 
L 309.620966 180.896257 
L 313.276986 181.935498 
L 317.33923 183.33752 
L 321.401474 184.982385 
L 325.869943 187.047349 
L 330.744636 189.570074 
L 336.025553 192.571632 
L 342.118919 196.307127 
L 349.837183 201.318677 
L 372.991974 216.539849 
L 379.897789 220.712958 
L 385.991155 224.142822 
L 391.678296 227.100765 
L 397.365438 229.806822 
L 403.05258 232.252896 
L 408.333497 234.290787 
L 414.020639 236.2392 
L 419.707781 237.942649 
L 425.394922 239.415774 
L 431.488288 240.758525 
L 437.987879 241.948577 
L 444.893694 242.972342 
L 452.205733 243.825557 
L 460.330221 244.543923 
L 469.673382 245.134637 
L 480.641441 245.59111 
L 494.046847 245.916195 
L 498.109091 245.980197 
L 498.109091 245.980197 
" style="fill:none;opacity:0.7;stroke:#d62728;stroke-linecap:square;stroke-width:3;"/>
   </g>
   <g id="patch_3">
    <path d="M 72 256.32 
L 72 34.56 
" style="fill:none;stroke:#000000;stroke-linecap:square;stroke-linejoin:miter;stroke-width:0.8;"/>
   </g>
   <g id="patch_4">
    <path d="M 518.4 256.32 
L 518.4 34.56 
" style="fill:none;stroke:#000000;stroke-linecap:square;stroke-linejoin:miter;stroke-width:0.8;"/>
   </g>
   <g id="patch_5">
    <path d="M 72 256.32 
L 518.4 256.32 
" style="fill:none;stroke:#000000;stroke-linecap:square;stroke-linejoin:miter;stroke-width:0.8;"/>
   </g>
   <g id="patch_6">
    <path d="M 72 34.56 
L 518.4 34.56 
" style="fill:none;stroke:#000000;stroke-linecap:square;stroke-linejoin:miter;stroke-width:0.8;"/>
   </g>
   <g id="legend_1">
    <g id="patch_7">
     <path d="M 412 101.35375 
L 511.4 101.35375 
Q 513.4 101.35375 513.4 99.35375 
L 513.4 41.56 
Q 513.4 39.56 511.4 39.56 
L 412 39.56 
Q 410 39.56 410 41.56 
L 410 99.35375 
Q 410 101.35375 412 101.35375 
z
" style="fill:#ffffff;opacity:0.8;stroke:#cccccc;stroke-linejoin:miter;"/>
    </g>
    <g id="line2d_19">
     <path d="M 414 47.658437 
L 434 47.658437 
" style="fill:none;opacity:0.7;stroke:#1f77b4;stroke-linecap:square;stroke-width:3;"/>
    </g>
    <g id="line2d_20"/>
    <g id="text_17">
     <!-- $\mu=-2, \sigma=1$ -->
     <defs>
      <path d="M 10.59375 45.40625 
L 73.1875 45.40625 
L 73.1875 37.203125 
L 10.59375 37.203125 
z
M 10.59375 25.484375 
L 73.1875 25.484375 
L 73.1875 17.1875 
L 10.59375 17.1875 
z
" id="DejaVuSans-3d"/>
     </defs>
     <g transform="translate(442 51.158437)scale(0.1 -0.1)">
      <use transform="translate(0 0.78125)" xlink:href="#DejaVuSans-Oblique-3bc"/>
      <use transform="translate(83.105469 0.78125)" xlink:href="#DejaVuSans-3d"/>
      <use transform="translate(205.859375 0.78125)" xlink:href="#DejaVuSans-2212"/>
      <use transform="translate(309.130859 0.78125)" xlink:href="#DejaVuSans-32"/>
      <use transform="translate(372.753906 0.78125)" xlink:href="#DejaVuSans-2c"/>
      <use transform="translate(424.023438 0.78125)" xlink:href="#DejaVuSans-Oblique-3c3"/>
      <use transform="translate(506.884766 0.78125)" xlink:href="#DejaVuSans-3d"/>
      <use transform="translate(610.15625 0.78125)" xlink:href="#DejaVuSans-31"/>
     </g>
    </g>
    <g id="line2d_21">
     <path d="M 414 62.356875 
L 434 62.356875 
" style="fill:none;opacity:0.7;stroke:#ff7f0e;stroke-linecap:square;stroke-width:3;"/>
    </g>
    <g id="line2d_22"/>
    <g id="text_18">
     <!-- $\mu=0, \sigma=1$ -->
     <g transform="translate(442 65.856875)scale(0.1 -0.1)">
      <use transform="translate(0 0.78125)" xlink:href="#DejaVuSans-Oblique-3bc"/>
      <use transform="translate(83.105469 0.78125)" xlink:href="#DejaVuSans-3d"/>
      <use transform="translate(186.376953 0.78125)" xlink:href="#DejaVuSans-30"/>
      <use transform="translate(250 0.78125)" xlink:href="#DejaVuSans-2c"/>
      <use transform="translate(301.269531 0.78125)" xlink:href="#DejaVuSans-Oblique-3c3"/>
      <use transform="translate(384.130859 0.78125)" xlink:href="#DejaVuSans-3d"/>
      <use transform="translate(487.402344 0.78125)" xlink:href="#DejaVuSans-31"/>
     </g>
    </g>
    <g id="line2d_23">
     <path d="M 414 77.055312 
L 434 77.055312 
" style="fill:none;opacity:0.7;stroke:#2ca02c;stroke-linecap:square;stroke-width:3;"/>
    </g>
    <g id="line2d_24"/>
    <g id="text_19">
     <!-- $\mu=0, \sigma=0.5$ -->
     <g transform="translate(442 80.555312)scale(0.1 -0.1)">
      <use transform="translate(0 0.78125)" xlink:href="#DejaVuSans-Oblique-3bc"/>
      <use transform="translate(83.105469 0.78125)" xlink:href="#DejaVuSans-3d"/>
      <use transform="translate(186.376953 0.78125)" xlink:href="#DejaVuSans-30"/>
      <use transform="translate(250 0.78125)" xlink:href="#DejaVuSans-2c"/>
      <use transform="translate(301.269531 0.78125)" xlink:href="#DejaVuSans-Oblique-3c3"/>
      <use transform="translate(384.130859 0.78125)" xlink:href="#DejaVuSans-3d"/>
      <use transform="translate(487.402344 0.78125)" xlink:href="#DejaVuSans-30"/>
      <use transform="translate(551.025391 0.78125)" xlink:href="#DejaVuSans-2e"/>
      <use transform="translate(582.8125 0.78125)" xlink:href="#DejaVuSans-35"/>
     </g>
    </g>
    <g id="line2d_25">
     <path d="M 414 91.75375 
L 434 91.75375 
" style="fill:none;opacity:0.7;stroke:#d62728;stroke-linecap:square;stroke-width:3;"/>
    </g>
    <g id="line2d_26"/>
    <g id="text_20">
     <!-- $\mu=0, \sigma=1.5$ -->
     <g transform="translate(442 95.25375)scale(0.1 -0.1)">
      <use transform="translate(0 0.78125)" xlink:href="#DejaVuSans-Oblique-3bc"/>
      <use transform="translate(83.105469 0.78125)" xlink:href="#DejaVuSans-3d"/>
      <use transform="translate(186.376953 0.78125)" xlink:href="#DejaVuSans-30"/>
      <use transform="translate(250 0.78125)" xlink:href="#DejaVuSans-2c"/>
      <use transform="translate(301.269531 0.78125)" xlink:href="#DejaVuSans-Oblique-3c3"/>
      <use transform="translate(384.130859 0.78125)" xlink:href="#DejaVuSans-3d"/>
      <use transform="translate(487.402344 0.78125)" xlink:href="#DejaVuSans-31"/>
      <use transform="translate(551.025391 0.78125)" xlink:href="#DejaVuSans-2e"/>
      <use transform="translate(582.8125 0.78125)" xlink:href="#DejaVuSans-35"/>
     </g>
    </g>
   </g>
  </g>
 </g>
 <defs>
  <clipPath id="p29342e8d1c">
   <rect height="221.76" width="446.4" x="72" y="34.56"/>
  </clipPath>
 </defs>
</svg>
