<?xml version="1.0" encoding="utf-8" standalone="no"?>
<!DOCTYPE svg PUBLIC "-//W3C//DTD SVG 1.1//EN"
  "http://www.w3.org/Graphics/SVG/1.1/DTD/svg11.dtd">
<!-- Created with matplotlib (http://matplotlib.org/) -->
<svg height="288pt" version="1.1" viewBox="0 0 576 288" width="576pt" xmlns="http://www.w3.org/2000/svg" xmlns:xlink="http://www.w3.org/1999/xlink">
 <defs>
  <style type="text/css">
*{stroke-linecap:butt;stroke-linejoin:round;}
  </style>
 </defs>
 <g id="figure_1">
  <g id="patch_1">
   <path d="M 0 288 
L 576 288 
L 576 0 
L 0 0 
z
" style="fill:#ffffff;"/>
  </g>
  <g id="axes_1">
   <g id="patch_2">
    <path d="M 72 256.32 
L 518.4 256.32 
L 518.4 34.56 
L 72 34.56 
z
" style="fill:#ffffff;"/>
   </g>
   <g id="matplotlib.axis_1">
    <g id="xtick_1">
     <g id="line2d_1">
      <defs>
       <path d="M 0 0 
L 0 3.5 
" id="mb7992b954a" style="stroke:#000000;stroke-width:0.8;"/>
      </defs>
      <g>
       <use style="stroke:#000000;stroke-width:0.8;" x="92.290909" xlink:href="#mb7992b954a" y="256.32"/>
      </g>
     </g>
     <g id="text_1">
      <!-- 0 -->
      <defs>
       <path d="M 31.78125 66.40625 
Q 24.171875 66.40625 20.328125 58.90625 
Q 16.5 51.421875 16.5 36.375 
Q 16.5 21.390625 20.328125 13.890625 
Q 24.171875 6.390625 31.78125 6.390625 
Q 39.453125 6.390625 43.28125 13.890625 
Q 47.125 21.390625 47.125 36.375 
Q 47.125 51.421875 43.28125 58.90625 
Q 39.453125 66.40625 31.78125 66.40625 
z
M 31.78125 74.21875 
Q 44.046875 74.21875 50.515625 64.515625 
Q 56.984375 54.828125 56.984375 36.375 
Q 56.984375 17.96875 50.515625 8.265625 
Q 44.046875 -1.421875 31.78125 -1.421875 
Q 19.53125 -1.421875 13.0625 8.265625 
Q 6.59375 17.96875 6.59375 36.375 
Q 6.59375 54.828125 13.0625 64.515625 
Q 19.53125 74.21875 31.78125 74.21875 
z
" id="DejaVuSans-30"/>
      </defs>
      <g transform="translate(89.109659 270.918437)scale(0.1 -0.1)">
       <use xlink:href="#DejaVuSans-30"/>
      </g>
     </g>
    </g>
    <g id="xtick_2">
     <g id="line2d_2">
      <g>
       <use style="stroke:#000000;stroke-width:0.8;" x="143.018182" xlink:href="#mb7992b954a" y="256.32"/>
      </g>
     </g>
     <g id="text_2">
      <!-- 5 -->
      <defs>
       <path d="M 10.796875 72.90625 
L 49.515625 72.90625 
L 49.515625 64.59375 
L 19.828125 64.59375 
L 19.828125 46.734375 
Q 21.96875 47.46875 24.109375 47.828125 
Q 26.265625 48.1875 28.421875 48.1875 
Q 40.625 48.1875 47.75 41.5 
Q 54.890625 34.8125 54.890625 23.390625 
Q 54.890625 11.625 47.5625 5.09375 
Q 40.234375 -1.421875 26.90625 -1.421875 
Q 22.3125 -1.421875 17.546875 -0.640625 
Q 12.796875 0.140625 7.71875 1.703125 
L 7.71875 11.625 
Q 12.109375 9.234375 16.796875 8.0625 
Q 21.484375 6.890625 26.703125 6.890625 
Q 35.15625 6.890625 40.078125 11.328125 
Q 45.015625 15.765625 45.015625 23.390625 
Q 45.015625 31 40.078125 35.4375 
Q 35.15625 39.890625 26.703125 39.890625 
Q 22.75 39.890625 18.8125 39.015625 
Q 14.890625 38.140625 10.796875 36.28125 
z
" id="DejaVuSans-35"/>
      </defs>
      <g transform="translate(139.836932 270.918437)scale(0.1 -0.1)">
       <use xlink:href="#DejaVuSans-35"/>
      </g>
     </g>
    </g>
    <g id="xtick_3">
     <g id="line2d_3">
      <g>
       <use style="stroke:#000000;stroke-width:0.8;" x="193.745455" xlink:href="#mb7992b954a" y="256.32"/>
      </g>
     </g>
     <g id="text_3">
      <!-- 10 -->
      <defs>
       <path d="M 12.40625 8.296875 
L 28.515625 8.296875 
L 28.515625 63.921875 
L 10.984375 60.40625 
L 10.984375 69.390625 
L 28.421875 72.90625 
L 38.28125 72.90625 
L 38.28125 8.296875 
L 54.390625 8.296875 
L 54.390625 0 
L 12.40625 0 
z
" id="DejaVuSans-31"/>
      </defs>
      <g transform="translate(187.382955 270.918437)scale(0.1 -0.1)">
       <use xlink:href="#DejaVuSans-31"/>
       <use x="63.623047" xlink:href="#DejaVuSans-30"/>
      </g>
     </g>
    </g>
    <g id="xtick_4">
     <g id="line2d_4">
      <g>
       <use style="stroke:#000000;stroke-width:0.8;" x="244.472727" xlink:href="#mb7992b954a" y="256.32"/>
      </g>
     </g>
     <g id="text_4">
      <!-- 15 -->
      <g transform="translate(238.110227 270.918437)scale(0.1 -0.1)">
       <use xlink:href="#DejaVuSans-31"/>
       <use x="63.623047" xlink:href="#DejaVuSans-35"/>
      </g>
     </g>
    </g>
    <g id="xtick_5">
     <g id="line2d_5">
      <g>
       <use style="stroke:#000000;stroke-width:0.8;" x="295.2" xlink:href="#mb7992b954a" y="256.32"/>
      </g>
     </g>
     <g id="text_5">
      <!-- 20 -->
      <defs>
       <path d="M 19.1875 8.296875 
L 53.609375 8.296875 
L 53.609375 0 
L 7.328125 0 
L 7.328125 8.296875 
Q 12.9375 14.109375 22.625 23.890625 
Q 32.328125 33.6875 34.8125 36.53125 
Q 39.546875 41.84375 41.421875 45.53125 
Q 43.3125 49.21875 43.3125 52.78125 
Q 43.3125 58.59375 39.234375 62.25 
Q 35.15625 65.921875 28.609375 65.921875 
Q 23.96875 65.921875 18.8125 64.3125 
Q 13.671875 62.703125 7.8125 59.421875 
L 7.8125 69.390625 
Q 13.765625 71.78125 18.9375 73 
Q 24.125 74.21875 28.421875 74.21875 
Q 39.75 74.21875 46.484375 68.546875 
Q 53.21875 62.890625 53.21875 53.421875 
Q 53.21875 48.921875 51.53125 44.890625 
Q 49.859375 40.875 45.40625 35.40625 
Q 44.1875 33.984375 37.640625 27.21875 
Q 31.109375 20.453125 19.1875 8.296875 
z
" id="DejaVuSans-32"/>
      </defs>
      <g transform="translate(288.8375 270.918437)scale(0.1 -0.1)">
       <use xlink:href="#DejaVuSans-32"/>
       <use x="63.623047" xlink:href="#DejaVuSans-30"/>
      </g>
     </g>
    </g>
    <g id="xtick_6">
     <g id="line2d_6">
      <g>
       <use style="stroke:#000000;stroke-width:0.8;" x="345.927273" xlink:href="#mb7992b954a" y="256.32"/>
      </g>
     </g>
     <g id="text_6">
      <!-- 25 -->
      <g transform="translate(339.564773 270.918437)scale(0.1 -0.1)">
       <use xlink:href="#DejaVuSans-32"/>
       <use x="63.623047" xlink:href="#DejaVuSans-35"/>
      </g>
     </g>
    </g>
    <g id="xtick_7">
     <g id="line2d_7">
      <g>
       <use style="stroke:#000000;stroke-width:0.8;" x="396.654545" xlink:href="#mb7992b954a" y="256.32"/>
      </g>
     </g>
     <g id="text_7">
      <!-- 30 -->
      <defs>
       <path d="M 40.578125 39.3125 
Q 47.65625 37.796875 51.625 33 
Q 55.609375 28.21875 55.609375 21.1875 
Q 55.609375 10.40625 48.1875 4.484375 
Q 40.765625 -1.421875 27.09375 -1.421875 
Q 22.515625 -1.421875 17.65625 -0.515625 
Q 12.796875 0.390625 7.625 2.203125 
L 7.625 11.71875 
Q 11.71875 9.328125 16.59375 8.109375 
Q 21.484375 6.890625 26.8125 6.890625 
Q 36.078125 6.890625 40.9375 10.546875 
Q 45.796875 14.203125 45.796875 21.1875 
Q 45.796875 27.640625 41.28125 31.265625 
Q 36.765625 34.90625 28.71875 34.90625 
L 20.21875 34.90625 
L 20.21875 43.015625 
L 29.109375 43.015625 
Q 36.375 43.015625 40.234375 45.921875 
Q 44.09375 48.828125 44.09375 54.296875 
Q 44.09375 59.90625 40.109375 62.90625 
Q 36.140625 65.921875 28.71875 65.921875 
Q 24.65625 65.921875 20.015625 65.03125 
Q 15.375 64.15625 9.8125 62.3125 
L 9.8125 71.09375 
Q 15.4375 72.65625 20.34375 73.4375 
Q 25.25 74.21875 29.59375 74.21875 
Q 40.828125 74.21875 47.359375 69.109375 
Q 53.90625 64.015625 53.90625 55.328125 
Q 53.90625 49.265625 50.4375 45.09375 
Q 46.96875 40.921875 40.578125 39.3125 
z
" id="DejaVuSans-33"/>
      </defs>
      <g transform="translate(390.292045 270.918437)scale(0.1 -0.1)">
       <use xlink:href="#DejaVuSans-33"/>
       <use x="63.623047" xlink:href="#DejaVuSans-30"/>
      </g>
     </g>
    </g>
    <g id="xtick_8">
     <g id="line2d_8">
      <g>
       <use style="stroke:#000000;stroke-width:0.8;" x="447.381818" xlink:href="#mb7992b954a" y="256.32"/>
      </g>
     </g>
     <g id="text_8">
      <!-- 35 -->
      <g transform="translate(441.019318 270.918437)scale(0.1 -0.1)">
       <use xlink:href="#DejaVuSans-33"/>
       <use x="63.623047" xlink:href="#DejaVuSans-35"/>
      </g>
     </g>
    </g>
    <g id="xtick_9">
     <g id="line2d_9">
      <g>
       <use style="stroke:#000000;stroke-width:0.8;" x="498.109091" xlink:href="#mb7992b954a" y="256.32"/>
      </g>
     </g>
     <g id="text_9">
      <!-- 40 -->
      <defs>
       <path d="M 37.796875 64.3125 
L 12.890625 25.390625 
L 37.796875 25.390625 
z
M 35.203125 72.90625 
L 47.609375 72.90625 
L 47.609375 25.390625 
L 58.015625 25.390625 
L 58.015625 17.1875 
L 47.609375 17.1875 
L 47.609375 0 
L 37.796875 0 
L 37.796875 17.1875 
L 4.890625 17.1875 
L 4.890625 26.703125 
z
" id="DejaVuSans-34"/>
      </defs>
      <g transform="translate(491.746591 270.918437)scale(0.1 -0.1)">
       <use xlink:href="#DejaVuSans-34"/>
       <use x="63.623047" xlink:href="#DejaVuSans-30"/>
      </g>
     </g>
    </g>
    <g id="text_10">
     <!-- $k$ values -->
     <defs>
      <path d="M 18.3125 75.984375 
L 27.296875 75.984375 
L 18.703125 31.6875 
L 49.515625 54.6875 
L 61.1875 54.6875 
L 26.8125 28.515625 
L 51.90625 0 
L 41.015625 0 
L 17.671875 26.703125 
L 12.5 0 
L 3.515625 0 
z
" id="DejaVuSans-Oblique-6b"/>
      <path id="DejaVuSans-20"/>
      <path d="M 2.984375 54.6875 
L 12.5 54.6875 
L 29.59375 8.796875 
L 46.6875 54.6875 
L 56.203125 54.6875 
L 35.6875 0 
L 23.484375 0 
z
" id="DejaVuSans-76"/>
      <path d="M 34.28125 27.484375 
Q 23.390625 27.484375 19.1875 25 
Q 14.984375 22.515625 14.984375 16.5 
Q 14.984375 11.71875 18.140625 8.90625 
Q 21.296875 6.109375 26.703125 6.109375 
Q 34.1875 6.109375 38.703125 11.40625 
Q 43.21875 16.703125 43.21875 25.484375 
L 43.21875 27.484375 
z
M 52.203125 31.203125 
L 52.203125 0 
L 43.21875 0 
L 43.21875 8.296875 
Q 40.140625 3.328125 35.546875 0.953125 
Q 30.953125 -1.421875 24.3125 -1.421875 
Q 15.921875 -1.421875 10.953125 3.296875 
Q 6 8.015625 6 15.921875 
Q 6 25.140625 12.171875 29.828125 
Q 18.359375 34.515625 30.609375 34.515625 
L 43.21875 34.515625 
L 43.21875 35.40625 
Q 43.21875 41.609375 39.140625 45 
Q 35.0625 48.390625 27.6875 48.390625 
Q 23 48.390625 18.546875 47.265625 
Q 14.109375 46.140625 10.015625 43.890625 
L 10.015625 52.203125 
Q 14.9375 54.109375 19.578125 55.046875 
Q 24.21875 56 28.609375 56 
Q 40.484375 56 46.34375 49.84375 
Q 52.203125 43.703125 52.203125 31.203125 
z
" id="DejaVuSans-61"/>
      <path d="M 9.421875 75.984375 
L 18.40625 75.984375 
L 18.40625 0 
L 9.421875 0 
z
" id="DejaVuSans-6c"/>
      <path d="M 8.5 21.578125 
L 8.5 54.6875 
L 17.484375 54.6875 
L 17.484375 21.921875 
Q 17.484375 14.15625 20.5 10.265625 
Q 23.53125 6.390625 29.59375 6.390625 
Q 36.859375 6.390625 41.078125 11.03125 
Q 45.3125 15.671875 45.3125 23.6875 
L 45.3125 54.6875 
L 54.296875 54.6875 
L 54.296875 0 
L 45.3125 0 
L 45.3125 8.40625 
Q 42.046875 3.421875 37.71875 1 
Q 33.40625 -1.421875 27.6875 -1.421875 
Q 18.265625 -1.421875 13.375 4.4375 
Q 8.5 10.296875 8.5 21.578125 
z
M 31.109375 56 
z
" id="DejaVuSans-75"/>
      <path d="M 56.203125 29.59375 
L 56.203125 25.203125 
L 14.890625 25.203125 
Q 15.484375 15.921875 20.484375 11.0625 
Q 25.484375 6.203125 34.421875 6.203125 
Q 39.59375 6.203125 44.453125 7.46875 
Q 49.3125 8.734375 54.109375 11.28125 
L 54.109375 2.78125 
Q 49.265625 0.734375 44.1875 -0.34375 
Q 39.109375 -1.421875 33.890625 -1.421875 
Q 20.796875 -1.421875 13.15625 6.1875 
Q 5.515625 13.8125 5.515625 26.8125 
Q 5.515625 40.234375 12.765625 48.109375 
Q 20.015625 56 32.328125 56 
Q 43.359375 56 49.78125 48.890625 
Q 56.203125 41.796875 56.203125 29.59375 
z
M 47.21875 32.234375 
Q 47.125 39.59375 43.09375 43.984375 
Q 39.0625 48.390625 32.421875 48.390625 
Q 24.90625 48.390625 20.390625 44.140625 
Q 15.875 39.890625 15.1875 32.171875 
z
" id="DejaVuSans-65"/>
      <path d="M 44.28125 53.078125 
L 44.28125 44.578125 
Q 40.484375 46.53125 36.375 47.5 
Q 32.28125 48.484375 27.875 48.484375 
Q 21.1875 48.484375 17.84375 46.4375 
Q 14.5 44.390625 14.5 40.28125 
Q 14.5 37.15625 16.890625 35.375 
Q 19.28125 33.59375 26.515625 31.984375 
L 29.59375 31.296875 
Q 39.15625 29.25 43.1875 25.515625 
Q 47.21875 21.78125 47.21875 15.09375 
Q 47.21875 7.46875 41.1875 3.015625 
Q 35.15625 -1.421875 24.609375 -1.421875 
Q 20.21875 -1.421875 15.453125 -0.5625 
Q 10.6875 0.296875 5.421875 2 
L 5.421875 11.28125 
Q 10.40625 8.6875 15.234375 7.390625 
Q 20.0625 6.109375 24.8125 6.109375 
Q 31.15625 6.109375 34.5625 8.28125 
Q 37.984375 10.453125 37.984375 14.40625 
Q 37.984375 18.0625 35.515625 20.015625 
Q 33.0625 21.96875 24.703125 23.78125 
L 21.578125 24.515625 
Q 13.234375 26.265625 9.515625 29.90625 
Q 5.8125 33.546875 5.8125 39.890625 
Q 5.8125 47.609375 11.28125 51.796875 
Q 16.75 56 26.8125 56 
Q 31.78125 56 36.171875 55.265625 
Q 40.578125 54.546875 44.28125 53.078125 
z
" id="DejaVuSans-73"/>
     </defs>
     <g transform="translate(274.45 284.596563)scale(0.1 -0.1)">
      <use transform="translate(0 0.015625)" xlink:href="#DejaVuSans-Oblique-6b"/>
      <use transform="translate(57.910156 0.015625)" xlink:href="#DejaVuSans-20"/>
      <use transform="translate(89.697266 0.015625)" xlink:href="#DejaVuSans-76"/>
      <use transform="translate(148.876953 0.015625)" xlink:href="#DejaVuSans-61"/>
      <use transform="translate(210.15625 0.015625)" xlink:href="#DejaVuSans-6c"/>
      <use transform="translate(237.939453 0.015625)" xlink:href="#DejaVuSans-75"/>
      <use transform="translate(301.318359 0.015625)" xlink:href="#DejaVuSans-65"/>
      <use transform="translate(362.841797 0.015625)" xlink:href="#DejaVuSans-73"/>
     </g>
    </g>
   </g>
   <g id="matplotlib.axis_2">
    <g id="ytick_1">
     <g id="line2d_10">
      <defs>
       <path d="M 0 0 
L -3.5 0 
" id="m8cfcb3cd0f" style="stroke:#000000;stroke-width:0.8;"/>
      </defs>
      <g>
       <use style="stroke:#000000;stroke-width:0.8;" x="72" xlink:href="#m8cfcb3cd0f" y="246.24"/>
      </g>
     </g>
     <g id="text_11">
      <!-- 0.000 -->
      <defs>
       <path d="M 10.6875 12.40625 
L 21 12.40625 
L 21 0 
L 10.6875 0 
z
" id="DejaVuSans-2e"/>
      </defs>
      <g transform="translate(36.371875 250.039219)scale(0.1 -0.1)">
       <use xlink:href="#DejaVuSans-30"/>
       <use x="63.623047" xlink:href="#DejaVuSans-2e"/>
       <use x="95.410156" xlink:href="#DejaVuSans-30"/>
       <use x="159.033203" xlink:href="#DejaVuSans-30"/>
       <use x="222.65625" xlink:href="#DejaVuSans-30"/>
      </g>
     </g>
    </g>
    <g id="ytick_2">
     <g id="line2d_11">
      <g>
       <use style="stroke:#000000;stroke-width:0.8;" x="72" xlink:href="#m8cfcb3cd0f" y="219.592247"/>
      </g>
     </g>
     <g id="text_12">
      <!-- 0.025 -->
      <g transform="translate(36.371875 223.391466)scale(0.1 -0.1)">
       <use xlink:href="#DejaVuSans-30"/>
       <use x="63.623047" xlink:href="#DejaVuSans-2e"/>
       <use x="95.410156" xlink:href="#DejaVuSans-30"/>
       <use x="159.033203" xlink:href="#DejaVuSans-32"/>
       <use x="222.65625" xlink:href="#DejaVuSans-35"/>
      </g>
     </g>
    </g>
    <g id="ytick_3">
     <g id="line2d_12">
      <g>
       <use style="stroke:#000000;stroke-width:0.8;" x="72" xlink:href="#m8cfcb3cd0f" y="192.944494"/>
      </g>
     </g>
     <g id="text_13">
      <!-- 0.050 -->
      <g transform="translate(36.371875 196.743713)scale(0.1 -0.1)">
       <use xlink:href="#DejaVuSans-30"/>
       <use x="63.623047" xlink:href="#DejaVuSans-2e"/>
       <use x="95.410156" xlink:href="#DejaVuSans-30"/>
       <use x="159.033203" xlink:href="#DejaVuSans-35"/>
       <use x="222.65625" xlink:href="#DejaVuSans-30"/>
      </g>
     </g>
    </g>
    <g id="ytick_4">
     <g id="line2d_13">
      <g>
       <use style="stroke:#000000;stroke-width:0.8;" x="72" xlink:href="#m8cfcb3cd0f" y="166.296742"/>
      </g>
     </g>
     <g id="text_14">
      <!-- 0.075 -->
      <defs>
       <path d="M 8.203125 72.90625 
L 55.078125 72.90625 
L 55.078125 68.703125 
L 28.609375 0 
L 18.3125 0 
L 43.21875 64.59375 
L 8.203125 64.59375 
z
" id="DejaVuSans-37"/>
      </defs>
      <g transform="translate(36.371875 170.09596)scale(0.1 -0.1)">
       <use xlink:href="#DejaVuSans-30"/>
       <use x="63.623047" xlink:href="#DejaVuSans-2e"/>
       <use x="95.410156" xlink:href="#DejaVuSans-30"/>
       <use x="159.033203" xlink:href="#DejaVuSans-37"/>
       <use x="222.65625" xlink:href="#DejaVuSans-35"/>
      </g>
     </g>
    </g>
    <g id="ytick_5">
     <g id="line2d_14">
      <g>
       <use style="stroke:#000000;stroke-width:0.8;" x="72" xlink:href="#m8cfcb3cd0f" y="139.648989"/>
      </g>
     </g>
     <g id="text_15">
      <!-- 0.100 -->
      <g transform="translate(36.371875 143.448208)scale(0.1 -0.1)">
       <use xlink:href="#DejaVuSans-30"/>
       <use x="63.623047" xlink:href="#DejaVuSans-2e"/>
       <use x="95.410156" xlink:href="#DejaVuSans-31"/>
       <use x="159.033203" xlink:href="#DejaVuSans-30"/>
       <use x="222.65625" xlink:href="#DejaVuSans-30"/>
      </g>
     </g>
    </g>
    <g id="ytick_6">
     <g id="line2d_15">
      <g>
       <use style="stroke:#000000;stroke-width:0.8;" x="72" xlink:href="#m8cfcb3cd0f" y="113.001236"/>
      </g>
     </g>
     <g id="text_16">
      <!-- 0.125 -->
      <g transform="translate(36.371875 116.800455)scale(0.1 -0.1)">
       <use xlink:href="#DejaVuSans-30"/>
       <use x="63.623047" xlink:href="#DejaVuSans-2e"/>
       <use x="95.410156" xlink:href="#DejaVuSans-31"/>
       <use x="159.033203" xlink:href="#DejaVuSans-32"/>
       <use x="222.65625" xlink:href="#DejaVuSans-35"/>
      </g>
     </g>
    </g>
    <g id="ytick_7">
     <g id="line2d_16">
      <g>
       <use style="stroke:#000000;stroke-width:0.8;" x="72" xlink:href="#m8cfcb3cd0f" y="86.353483"/>
      </g>
     </g>
     <g id="text_17">
      <!-- 0.150 -->
      <g transform="translate(36.371875 90.152702)scale(0.1 -0.1)">
       <use xlink:href="#DejaVuSans-30"/>
       <use x="63.623047" xlink:href="#DejaVuSans-2e"/>
       <use x="95.410156" xlink:href="#DejaVuSans-31"/>
       <use x="159.033203" xlink:href="#DejaVuSans-35"/>
       <use x="222.65625" xlink:href="#DejaVuSans-30"/>
      </g>
     </g>
    </g>
    <g id="ytick_8">
     <g id="line2d_17">
      <g>
       <use style="stroke:#000000;stroke-width:0.8;" x="72" xlink:href="#m8cfcb3cd0f" y="59.70573"/>
      </g>
     </g>
     <g id="text_18">
      <!-- 0.175 -->
      <g transform="translate(36.371875 63.504949)scale(0.1 -0.1)">
       <use xlink:href="#DejaVuSans-30"/>
       <use x="63.623047" xlink:href="#DejaVuSans-2e"/>
       <use x="95.410156" xlink:href="#DejaVuSans-31"/>
       <use x="159.033203" xlink:href="#DejaVuSans-37"/>
       <use x="222.65625" xlink:href="#DejaVuSans-35"/>
      </g>
     </g>
    </g>
    <g id="text_19">
     <!-- $P(X=k)$ -->
     <defs>
      <path d="M 16.890625 72.90625 
L 39.703125 72.90625 
Q 49.65625 72.90625 54.875 68.265625 
Q 60.109375 63.625 60.109375 54.6875 
Q 60.109375 42.671875 52.390625 35.984375 
Q 44.671875 29.296875 30.71875 29.296875 
L 18.3125 29.296875 
L 12.59375 0 
L 2.6875 0 
z
M 25.203125 64.796875 
L 19.921875 37.40625 
L 32.328125 37.40625 
Q 40.71875 37.40625 45.203125 41.703125 
Q 49.703125 46 49.703125 54 
Q 49.703125 59.125 46.65625 61.953125 
Q 43.609375 64.796875 38.09375 64.796875 
z
" id="DejaVuSans-Oblique-50"/>
      <path d="M 31 75.875 
Q 24.46875 64.65625 21.28125 53.65625 
Q 18.109375 42.671875 18.109375 31.390625 
Q 18.109375 20.125 21.3125 9.0625 
Q 24.515625 -2 31 -13.1875 
L 23.1875 -13.1875 
Q 15.875 -1.703125 12.234375 9.375 
Q 8.59375 20.453125 8.59375 31.390625 
Q 8.59375 42.28125 12.203125 53.3125 
Q 15.828125 64.359375 23.1875 75.875 
z
" id="DejaVuSans-28"/>
      <path d="M 13.71875 72.90625 
L 23.6875 72.90625 
L 36.1875 46.578125 
L 58.796875 72.90625 
L 70.3125 72.90625 
L 40.28125 38.09375 
L 58.40625 0 
L 48.484375 0 
L 33.796875 30.71875 
L 7.171875 0 
L -4.296875 0 
L 29.78125 39.203125 
z
" id="DejaVuSans-Oblique-58"/>
      <path d="M 10.59375 45.40625 
L 73.1875 45.40625 
L 73.1875 37.203125 
L 10.59375 37.203125 
z
M 10.59375 25.484375 
L 73.1875 25.484375 
L 73.1875 17.1875 
L 10.59375 17.1875 
z
" id="DejaVuSans-3d"/>
      <path d="M 8.015625 75.875 
L 15.828125 75.875 
Q 23.140625 64.359375 26.78125 53.3125 
Q 30.421875 42.28125 30.421875 31.390625 
Q 30.421875 20.453125 26.78125 9.375 
Q 23.140625 -1.703125 15.828125 -13.1875 
L 8.015625 -13.1875 
Q 14.5 -2 17.703125 9.0625 
Q 20.90625 20.125 20.90625 31.390625 
Q 20.90625 42.671875 17.703125 53.65625 
Q 14.5 64.65625 8.015625 75.875 
z
" id="DejaVuSans-29"/>
     </defs>
     <g transform="translate(30.292188 164.84)rotate(-90)scale(0.1 -0.1)">
      <use transform="translate(0 0.015625)" xlink:href="#DejaVuSans-Oblique-50"/>
      <use transform="translate(60.302734 0.015625)" xlink:href="#DejaVuSans-28"/>
      <use transform="translate(99.316406 0.015625)" xlink:href="#DejaVuSans-Oblique-58"/>
      <use transform="translate(187.304688 0.015625)" xlink:href="#DejaVuSans-3d"/>
      <use transform="translate(290.576172 0.015625)" xlink:href="#DejaVuSans-Oblique-6b"/>
      <use transform="translate(348.486328 0.015625)" xlink:href="#DejaVuSans-29"/>
     </g>
    </g>
   </g>
   <g id="line2d_18">
    <path clip-path="url(#p6d771c61fb)" d="M 92.290909 246.24 
L 102.436364 246.24 
L 112.581818 246.24 
L 122.727273 246.24 
L 132.872727 246.24 
L 143.018182 246.24 
L 153.163636 246.24 
L 163.309091 246.239996 
L 173.454545 246.239965 
L 183.6 246.239761 
L 193.745455 246.238591 
L 203.890909 246.23282 
L 214.036364 246.208124 
L 224.181818 246.115977 
L 234.327273 245.815063 
L 244.472727 244.952961 
L 254.618182 242.783597 
L 264.763636 237.989908 
L 274.909091 228.706216 
L 285.054545 213.018093 
L 295.2 190.078366 
L 305.345455 161.507691 
L 315.490909 132.168563 
L 325.636364 109.296493 
L 335.781818 99.804816 
L 345.927273 107.001059 
L 356.072727 128.776089 
L 366.218182 158.579151 
L 376.363636 188.58212 
L 386.509091 212.969525 
L 396.654545 229.493861 
L 406.8 238.940026 
L 416.945455 243.50862 
L 427.090909 245.372756 
L 437.236364 246.009764 
L 447.381818 246.189892 
L 457.527273 246.231301 
L 467.672727 246.238842 
L 477.818182 246.239889 
L 487.963636 246.239993 
L 498.109091 246.24 
" style="fill:none;opacity:0.6;stroke:#808080;stroke-linecap:square;stroke-width:1.5;"/>
   </g>
   <g id="line2d_19">
    <defs>
     <path d="M 0 3 
C 0.795609 3 1.55874 2.683901 2.12132 2.12132 
C 2.683901 1.55874 3 0.795609 3 0 
C 3 -0.795609 2.683901 -1.55874 2.12132 -2.12132 
C 1.55874 -2.683901 0.795609 -3 0 -3 
C -0.795609 -3 -1.55874 -2.683901 -2.12132 -2.12132 
C -2.683901 -1.55874 -3 -0.795609 -3 0 
C -3 0.795609 -2.683901 1.55874 -2.12132 2.12132 
C -1.55874 2.683901 -0.795609 3 0 3 
z
" id="m5f80031fc7" style="stroke:#1f77b4;"/>
    </defs>
    <g clip-path="url(#p6d771c61fb)">
     <use style="fill:#1f77b4;stroke:#1f77b4;" x="92.290909" xlink:href="#m5f80031fc7" y="246.24"/>
     <use style="fill:#1f77b4;stroke:#1f77b4;" x="102.436364" xlink:href="#m5f80031fc7" y="246.24"/>
     <use style="fill:#1f77b4;stroke:#1f77b4;" x="112.581818" xlink:href="#m5f80031fc7" y="246.24"/>
     <use style="fill:#1f77b4;stroke:#1f77b4;" x="122.727273" xlink:href="#m5f80031fc7" y="246.24"/>
     <use style="fill:#1f77b4;stroke:#1f77b4;" x="132.872727" xlink:href="#m5f80031fc7" y="246.24"/>
     <use style="fill:#1f77b4;stroke:#1f77b4;" x="143.018182" xlink:href="#m5f80031fc7" y="246.24"/>
     <use style="fill:#1f77b4;stroke:#1f77b4;" x="153.163636" xlink:href="#m5f80031fc7" y="246.24"/>
     <use style="fill:#1f77b4;stroke:#1f77b4;" x="163.309091" xlink:href="#m5f80031fc7" y="246.239996"/>
     <use style="fill:#1f77b4;stroke:#1f77b4;" x="173.454545" xlink:href="#m5f80031fc7" y="246.239965"/>
     <use style="fill:#1f77b4;stroke:#1f77b4;" x="183.6" xlink:href="#m5f80031fc7" y="246.239761"/>
     <use style="fill:#1f77b4;stroke:#1f77b4;" x="193.745455" xlink:href="#m5f80031fc7" y="246.238591"/>
     <use style="fill:#1f77b4;stroke:#1f77b4;" x="203.890909" xlink:href="#m5f80031fc7" y="246.23282"/>
     <use style="fill:#1f77b4;stroke:#1f77b4;" x="214.036364" xlink:href="#m5f80031fc7" y="246.208124"/>
     <use style="fill:#1f77b4;stroke:#1f77b4;" x="224.181818" xlink:href="#m5f80031fc7" y="246.115977"/>
     <use style="fill:#1f77b4;stroke:#1f77b4;" x="234.327273" xlink:href="#m5f80031fc7" y="245.815063"/>
     <use style="fill:#1f77b4;stroke:#1f77b4;" x="244.472727" xlink:href="#m5f80031fc7" y="244.952961"/>
     <use style="fill:#1f77b4;stroke:#1f77b4;" x="254.618182" xlink:href="#m5f80031fc7" y="242.783597"/>
     <use style="fill:#1f77b4;stroke:#1f77b4;" x="264.763636" xlink:href="#m5f80031fc7" y="237.989908"/>
     <use style="fill:#1f77b4;stroke:#1f77b4;" x="274.909091" xlink:href="#m5f80031fc7" y="228.706216"/>
     <use style="fill:#1f77b4;stroke:#1f77b4;" x="285.054545" xlink:href="#m5f80031fc7" y="213.018093"/>
     <use style="fill:#1f77b4;stroke:#1f77b4;" x="295.2" xlink:href="#m5f80031fc7" y="190.078366"/>
     <use style="fill:#1f77b4;stroke:#1f77b4;" x="305.345455" xlink:href="#m5f80031fc7" y="161.507691"/>
     <use style="fill:#1f77b4;stroke:#1f77b4;" x="315.490909" xlink:href="#m5f80031fc7" y="132.168563"/>
     <use style="fill:#1f77b4;stroke:#1f77b4;" x="325.636364" xlink:href="#m5f80031fc7" y="109.296493"/>
     <use style="fill:#1f77b4;stroke:#1f77b4;" x="335.781818" xlink:href="#m5f80031fc7" y="99.804816"/>
     <use style="fill:#1f77b4;stroke:#1f77b4;" x="345.927273" xlink:href="#m5f80031fc7" y="107.001059"/>
     <use style="fill:#1f77b4;stroke:#1f77b4;" x="356.072727" xlink:href="#m5f80031fc7" y="128.776089"/>
     <use style="fill:#1f77b4;stroke:#1f77b4;" x="366.218182" xlink:href="#m5f80031fc7" y="158.579151"/>
     <use style="fill:#1f77b4;stroke:#1f77b4;" x="376.363636" xlink:href="#m5f80031fc7" y="188.58212"/>
     <use style="fill:#1f77b4;stroke:#1f77b4;" x="386.509091" xlink:href="#m5f80031fc7" y="212.969525"/>
     <use style="fill:#1f77b4;stroke:#1f77b4;" x="396.654545" xlink:href="#m5f80031fc7" y="229.493861"/>
     <use style="fill:#1f77b4;stroke:#1f77b4;" x="406.8" xlink:href="#m5f80031fc7" y="238.940026"/>
     <use style="fill:#1f77b4;stroke:#1f77b4;" x="416.945455" xlink:href="#m5f80031fc7" y="243.50862"/>
     <use style="fill:#1f77b4;stroke:#1f77b4;" x="427.090909" xlink:href="#m5f80031fc7" y="245.372756"/>
     <use style="fill:#1f77b4;stroke:#1f77b4;" x="437.236364" xlink:href="#m5f80031fc7" y="246.009764"/>
     <use style="fill:#1f77b4;stroke:#1f77b4;" x="447.381818" xlink:href="#m5f80031fc7" y="246.189892"/>
     <use style="fill:#1f77b4;stroke:#1f77b4;" x="457.527273" xlink:href="#m5f80031fc7" y="246.231301"/>
     <use style="fill:#1f77b4;stroke:#1f77b4;" x="467.672727" xlink:href="#m5f80031fc7" y="246.238842"/>
     <use style="fill:#1f77b4;stroke:#1f77b4;" x="477.818182" xlink:href="#m5f80031fc7" y="246.239889"/>
     <use style="fill:#1f77b4;stroke:#1f77b4;" x="487.963636" xlink:href="#m5f80031fc7" y="246.239993"/>
     <use style="fill:#1f77b4;stroke:#1f77b4;" x="498.109091" xlink:href="#m5f80031fc7" y="246.24"/>
    </g>
   </g>
   <g id="line2d_20">
    <path clip-path="url(#p6d771c61fb)" d="M 92.290909 246.239998 
L 102.436364 246.239932 
L 112.581818 246.239026 
L 122.727273 246.231137 
L 132.872727 246.182198 
L 143.018182 245.951998 
L 153.163636 245.099192 
L 163.309091 242.548834 
L 173.454545 236.292671 
L 183.6 223.585807 
L 193.745455 202.152587 
L 203.890909 172.28692 
L 214.036364 138.589283 
L 224.181818 109.527282 
L 234.327273 94.13783 
L 244.472727 97.517878 
L 254.618182 118.141454 
L 264.763636 148.890721 
L 274.909091 180.906482 
L 285.054545 207.508215 
L 295.2 225.964855 
L 305.345455 236.87774 
L 315.490909 242.433057 
L 325.636364 244.880165 
L 335.781818 245.814714 
L 345.927273 246.12404 
L 356.072727 246.212584 
L 366.218182 246.234418 
L 376.363636 246.23903 
L 386.509091 246.239858 
L 396.654545 246.239983 
L 406.8 246.239998 
L 416.945455 246.24 
L 427.090909 246.24 
L 437.236364 246.24 
L 447.381818 246.24 
L 457.527273 246.24 
" style="fill:none;opacity:0.6;stroke:#808080;stroke-linecap:square;stroke-width:1.5;"/>
   </g>
   <g id="line2d_21">
    <defs>
     <path d="M 0 3 
C 0.795609 3 1.55874 2.683901 2.12132 2.12132 
C 2.683901 1.55874 3 0.795609 3 0 
C 3 -0.795609 2.683901 -1.55874 2.12132 -2.12132 
C 1.55874 -2.683901 0.795609 -3 0 -3 
C -0.795609 -3 -1.55874 -2.683901 -2.12132 -2.12132 
C -2.683901 -1.55874 -3 -0.795609 -3 0 
C -3 0.795609 -2.683901 1.55874 -2.12132 2.12132 
C -1.55874 2.683901 -0.795609 3 0 3 
z
" id="m70a3d5f25c" style="stroke:#ff7f0e;"/>
    </defs>
    <g clip-path="url(#p6d771c61fb)">
     <use style="fill:#ff7f0e;stroke:#ff7f0e;" x="92.290909" xlink:href="#m70a3d5f25c" y="246.239998"/>
     <use style="fill:#ff7f0e;stroke:#ff7f0e;" x="102.436364" xlink:href="#m70a3d5f25c" y="246.239932"/>
     <use style="fill:#ff7f0e;stroke:#ff7f0e;" x="112.581818" xlink:href="#m70a3d5f25c" y="246.239026"/>
     <use style="fill:#ff7f0e;stroke:#ff7f0e;" x="122.727273" xlink:href="#m70a3d5f25c" y="246.231137"/>
     <use style="fill:#ff7f0e;stroke:#ff7f0e;" x="132.872727" xlink:href="#m70a3d5f25c" y="246.182198"/>
     <use style="fill:#ff7f0e;stroke:#ff7f0e;" x="143.018182" xlink:href="#m70a3d5f25c" y="245.951998"/>
     <use style="fill:#ff7f0e;stroke:#ff7f0e;" x="153.163636" xlink:href="#m70a3d5f25c" y="245.099192"/>
     <use style="fill:#ff7f0e;stroke:#ff7f0e;" x="163.309091" xlink:href="#m70a3d5f25c" y="242.548834"/>
     <use style="fill:#ff7f0e;stroke:#ff7f0e;" x="173.454545" xlink:href="#m70a3d5f25c" y="236.292671"/>
     <use style="fill:#ff7f0e;stroke:#ff7f0e;" x="183.6" xlink:href="#m70a3d5f25c" y="223.585807"/>
     <use style="fill:#ff7f0e;stroke:#ff7f0e;" x="193.745455" xlink:href="#m70a3d5f25c" y="202.152587"/>
     <use style="fill:#ff7f0e;stroke:#ff7f0e;" x="203.890909" xlink:href="#m70a3d5f25c" y="172.28692"/>
     <use style="fill:#ff7f0e;stroke:#ff7f0e;" x="214.036364" xlink:href="#m70a3d5f25c" y="138.589283"/>
     <use style="fill:#ff7f0e;stroke:#ff7f0e;" x="224.181818" xlink:href="#m70a3d5f25c" y="109.527282"/>
     <use style="fill:#ff7f0e;stroke:#ff7f0e;" x="234.327273" xlink:href="#m70a3d5f25c" y="94.13783"/>
     <use style="fill:#ff7f0e;stroke:#ff7f0e;" x="244.472727" xlink:href="#m70a3d5f25c" y="97.517878"/>
     <use style="fill:#ff7f0e;stroke:#ff7f0e;" x="254.618182" xlink:href="#m70a3d5f25c" y="118.141454"/>
     <use style="fill:#ff7f0e;stroke:#ff7f0e;" x="264.763636" xlink:href="#m70a3d5f25c" y="148.890721"/>
     <use style="fill:#ff7f0e;stroke:#ff7f0e;" x="274.909091" xlink:href="#m70a3d5f25c" y="180.906482"/>
     <use style="fill:#ff7f0e;stroke:#ff7f0e;" x="285.054545" xlink:href="#m70a3d5f25c" y="207.508215"/>
     <use style="fill:#ff7f0e;stroke:#ff7f0e;" x="295.2" xlink:href="#m70a3d5f25c" y="225.964855"/>
     <use style="fill:#ff7f0e;stroke:#ff7f0e;" x="305.345455" xlink:href="#m70a3d5f25c" y="236.87774"/>
     <use style="fill:#ff7f0e;stroke:#ff7f0e;" x="315.490909" xlink:href="#m70a3d5f25c" y="242.433057"/>
     <use style="fill:#ff7f0e;stroke:#ff7f0e;" x="325.636364" xlink:href="#m70a3d5f25c" y="244.880165"/>
     <use style="fill:#ff7f0e;stroke:#ff7f0e;" x="335.781818" xlink:href="#m70a3d5f25c" y="245.814714"/>
     <use style="fill:#ff7f0e;stroke:#ff7f0e;" x="345.927273" xlink:href="#m70a3d5f25c" y="246.12404"/>
     <use style="fill:#ff7f0e;stroke:#ff7f0e;" x="356.072727" xlink:href="#m70a3d5f25c" y="246.212584"/>
     <use style="fill:#ff7f0e;stroke:#ff7f0e;" x="366.218182" xlink:href="#m70a3d5f25c" y="246.234418"/>
     <use style="fill:#ff7f0e;stroke:#ff7f0e;" x="376.363636" xlink:href="#m70a3d5f25c" y="246.23903"/>
     <use style="fill:#ff7f0e;stroke:#ff7f0e;" x="386.509091" xlink:href="#m70a3d5f25c" y="246.239858"/>
     <use style="fill:#ff7f0e;stroke:#ff7f0e;" x="396.654545" xlink:href="#m70a3d5f25c" y="246.239983"/>
     <use style="fill:#ff7f0e;stroke:#ff7f0e;" x="406.8" xlink:href="#m70a3d5f25c" y="246.239998"/>
     <use style="fill:#ff7f0e;stroke:#ff7f0e;" x="416.945455" xlink:href="#m70a3d5f25c" y="246.24"/>
     <use style="fill:#ff7f0e;stroke:#ff7f0e;" x="427.090909" xlink:href="#m70a3d5f25c" y="246.24"/>
     <use style="fill:#ff7f0e;stroke:#ff7f0e;" x="437.236364" xlink:href="#m70a3d5f25c" y="246.24"/>
     <use style="fill:#ff7f0e;stroke:#ff7f0e;" x="447.381818" xlink:href="#m70a3d5f25c" y="246.24"/>
     <use style="fill:#ff7f0e;stroke:#ff7f0e;" x="457.527273" xlink:href="#m70a3d5f25c" y="246.24"/>
    </g>
   </g>
   <g id="line2d_22">
    <path clip-path="url(#p6d771c61fb)" d="M 92.290909 245.348101 
L 102.436364 238.631383 
L 112.581818 215.536358 
L 122.727273 168.207582 
L 132.872727 105.945734 
L 143.018182 56.222836 
L 153.163636 44.64 
L 163.309091 74.236313 
L 173.454545 126.014946 
L 183.6 176.459451 
L 193.745455 212.26956 
L 203.890909 232.266146 
L 214.036364 241.356495 
L 224.181818 244.78455 
L 234.327273 245.869176 
L 244.472727 246.159133 
L 254.618182 246.224905 
L 264.763636 246.23759 
L 274.909091 246.239672 
L 285.054545 246.239962 
L 295.2 246.239996 
L 305.345455 246.24 
L 315.490909 246.24 
L 325.636364 246.24 
L 335.781818 246.24 
L 345.927273 246.24 
L 356.072727 246.24 
L 366.218182 246.24 
L 376.363636 246.24 
L 386.509091 246.24 
L 396.654545 246.24 
" style="fill:none;opacity:0.6;stroke:#808080;stroke-linecap:square;stroke-width:1.5;"/>
   </g>
   <g id="line2d_23">
    <defs>
     <path d="M 0 3 
C 0.795609 3 1.55874 2.683901 2.12132 2.12132 
C 2.683901 1.55874 3 0.795609 3 0 
C 3 -0.795609 2.683901 -1.55874 2.12132 -2.12132 
C 1.55874 -2.683901 0.795609 -3 0 -3 
C -0.795609 -3 -1.55874 -2.683901 -2.12132 -2.12132 
C -2.683901 -1.55874 -3 -0.795609 -3 0 
C -3 0.795609 -2.683901 1.55874 -2.12132 2.12132 
C -1.55874 2.683901 -0.795609 3 0 3 
z
" id="mbd385fe037" style="stroke:#2ca02c;"/>
    </defs>
    <g clip-path="url(#p6d771c61fb)">
     <use style="fill:#2ca02c;stroke:#2ca02c;" x="92.290909" xlink:href="#mbd385fe037" y="245.348101"/>
     <use style="fill:#2ca02c;stroke:#2ca02c;" x="102.436364" xlink:href="#mbd385fe037" y="238.631383"/>
     <use style="fill:#2ca02c;stroke:#2ca02c;" x="112.581818" xlink:href="#mbd385fe037" y="215.536358"/>
     <use style="fill:#2ca02c;stroke:#2ca02c;" x="122.727273" xlink:href="#mbd385fe037" y="168.207582"/>
     <use style="fill:#2ca02c;stroke:#2ca02c;" x="132.872727" xlink:href="#mbd385fe037" y="105.945734"/>
     <use style="fill:#2ca02c;stroke:#2ca02c;" x="143.018182" xlink:href="#mbd385fe037" y="56.222836"/>
     <use style="fill:#2ca02c;stroke:#2ca02c;" x="153.163636" xlink:href="#mbd385fe037" y="44.64"/>
     <use style="fill:#2ca02c;stroke:#2ca02c;" x="163.309091" xlink:href="#mbd385fe037" y="74.236313"/>
     <use style="fill:#2ca02c;stroke:#2ca02c;" x="173.454545" xlink:href="#mbd385fe037" y="126.014946"/>
     <use style="fill:#2ca02c;stroke:#2ca02c;" x="183.6" xlink:href="#mbd385fe037" y="176.459451"/>
     <use style="fill:#2ca02c;stroke:#2ca02c;" x="193.745455" xlink:href="#mbd385fe037" y="212.26956"/>
     <use style="fill:#2ca02c;stroke:#2ca02c;" x="203.890909" xlink:href="#mbd385fe037" y="232.266146"/>
     <use style="fill:#2ca02c;stroke:#2ca02c;" x="214.036364" xlink:href="#mbd385fe037" y="241.356495"/>
     <use style="fill:#2ca02c;stroke:#2ca02c;" x="224.181818" xlink:href="#mbd385fe037" y="244.78455"/>
     <use style="fill:#2ca02c;stroke:#2ca02c;" x="234.327273" xlink:href="#mbd385fe037" y="245.869176"/>
     <use style="fill:#2ca02c;stroke:#2ca02c;" x="244.472727" xlink:href="#mbd385fe037" y="246.159133"/>
     <use style="fill:#2ca02c;stroke:#2ca02c;" x="254.618182" xlink:href="#mbd385fe037" y="246.224905"/>
     <use style="fill:#2ca02c;stroke:#2ca02c;" x="264.763636" xlink:href="#mbd385fe037" y="246.23759"/>
     <use style="fill:#2ca02c;stroke:#2ca02c;" x="274.909091" xlink:href="#mbd385fe037" y="246.239672"/>
     <use style="fill:#2ca02c;stroke:#2ca02c;" x="285.054545" xlink:href="#mbd385fe037" y="246.239962"/>
     <use style="fill:#2ca02c;stroke:#2ca02c;" x="295.2" xlink:href="#mbd385fe037" y="246.239996"/>
     <use style="fill:#2ca02c;stroke:#2ca02c;" x="305.345455" xlink:href="#mbd385fe037" y="246.24"/>
     <use style="fill:#2ca02c;stroke:#2ca02c;" x="315.490909" xlink:href="#mbd385fe037" y="246.24"/>
     <use style="fill:#2ca02c;stroke:#2ca02c;" x="325.636364" xlink:href="#mbd385fe037" y="246.24"/>
     <use style="fill:#2ca02c;stroke:#2ca02c;" x="335.781818" xlink:href="#mbd385fe037" y="246.24"/>
     <use style="fill:#2ca02c;stroke:#2ca02c;" x="345.927273" xlink:href="#mbd385fe037" y="246.24"/>
     <use style="fill:#2ca02c;stroke:#2ca02c;" x="356.072727" xlink:href="#mbd385fe037" y="246.24"/>
     <use style="fill:#2ca02c;stroke:#2ca02c;" x="366.218182" xlink:href="#mbd385fe037" y="246.24"/>
     <use style="fill:#2ca02c;stroke:#2ca02c;" x="376.363636" xlink:href="#mbd385fe037" y="246.24"/>
     <use style="fill:#2ca02c;stroke:#2ca02c;" x="386.509091" xlink:href="#mbd385fe037" y="246.24"/>
     <use style="fill:#2ca02c;stroke:#2ca02c;" x="396.654545" xlink:href="#mbd385fe037" y="246.24"/>
    </g>
   </g>
   <g id="patch_3">
    <path d="M 72 256.32 
L 72 34.56 
" style="fill:none;stroke:#000000;stroke-linecap:square;stroke-linejoin:miter;stroke-width:0.8;"/>
   </g>
   <g id="patch_4">
    <path d="M 518.4 256.32 
L 518.4 34.56 
" style="fill:none;stroke:#000000;stroke-linecap:square;stroke-linejoin:miter;stroke-width:0.8;"/>
   </g>
   <g id="patch_5">
    <path d="M 72 256.32 
L 518.4 256.32 
" style="fill:none;stroke:#000000;stroke-linecap:square;stroke-linejoin:miter;stroke-width:0.8;"/>
   </g>
   <g id="patch_6">
    <path d="M 72 34.56 
L 518.4 34.56 
" style="fill:none;stroke:#000000;stroke-linecap:square;stroke-linejoin:miter;stroke-width:0.8;"/>
   </g>
   <g id="legend_1">
    <g id="patch_7">
     <path d="M 358.9 86.594375 
L 511.4 86.594375 
Q 513.4 86.594375 513.4 84.594375 
L 513.4 41.56 
Q 513.4 39.56 511.4 39.56 
L 358.9 39.56 
Q 356.9 39.56 356.9 41.56 
L 356.9 84.594375 
Q 356.9 86.594375 358.9 86.594375 
z
" style="fill:#ffffff;opacity:0.8;stroke:#cccccc;stroke-linejoin:miter;"/>
    </g>
    <g id="line2d_24"/>
    <g id="line2d_25">
     <g>
      <use style="fill:#1f77b4;stroke:#1f77b4;" x="370.9" xlink:href="#m5f80031fc7" y="47.658438"/>
     </g>
    </g>
    <g id="text_20">
     <!-- $n=180,N=300,M=40$ -->
     <defs>
      <path d="M 55.71875 33.015625 
L 49.3125 0 
L 40.28125 0 
L 46.6875 32.671875 
Q 47.125 34.96875 47.359375 36.71875 
Q 47.609375 38.484375 47.609375 39.5 
Q 47.609375 43.609375 45.015625 45.890625 
Q 42.4375 48.1875 37.796875 48.1875 
Q 30.5625 48.1875 25.34375 43.375 
Q 20.125 38.578125 18.5 30.328125 
L 12.5 0 
L 3.515625 0 
L 14.109375 54.6875 
L 23.09375 54.6875 
L 21.296875 46.09375 
Q 25.046875 50.828125 30.3125 53.40625 
Q 35.59375 56 41.40625 56 
Q 48.640625 56 52.609375 52.09375 
Q 56.59375 48.1875 56.59375 41.109375 
Q 56.59375 39.359375 56.375 37.359375 
Q 56.15625 35.359375 55.71875 33.015625 
z
" id="DejaVuSans-Oblique-6e"/>
      <path d="M 31.78125 34.625 
Q 24.75 34.625 20.71875 30.859375 
Q 16.703125 27.09375 16.703125 20.515625 
Q 16.703125 13.921875 20.71875 10.15625 
Q 24.75 6.390625 31.78125 6.390625 
Q 38.8125 6.390625 42.859375 10.171875 
Q 46.921875 13.96875 46.921875 20.515625 
Q 46.921875 27.09375 42.890625 30.859375 
Q 38.875 34.625 31.78125 34.625 
z
M 21.921875 38.8125 
Q 15.578125 40.375 12.03125 44.71875 
Q 8.5 49.078125 8.5 55.328125 
Q 8.5 64.0625 14.71875 69.140625 
Q 20.953125 74.21875 31.78125 74.21875 
Q 42.671875 74.21875 48.875 69.140625 
Q 55.078125 64.0625 55.078125 55.328125 
Q 55.078125 49.078125 51.53125 44.71875 
Q 48 40.375 41.703125 38.8125 
Q 48.828125 37.15625 52.796875 32.3125 
Q 56.78125 27.484375 56.78125 20.515625 
Q 56.78125 9.90625 50.3125 4.234375 
Q 43.84375 -1.421875 31.78125 -1.421875 
Q 19.734375 -1.421875 13.25 4.234375 
Q 6.78125 9.90625 6.78125 20.515625 
Q 6.78125 27.484375 10.78125 32.3125 
Q 14.796875 37.15625 21.921875 38.8125 
z
M 18.3125 54.390625 
Q 18.3125 48.734375 21.84375 45.5625 
Q 25.390625 42.390625 31.78125 42.390625 
Q 38.140625 42.390625 41.71875 45.5625 
Q 45.3125 48.734375 45.3125 54.390625 
Q 45.3125 60.0625 41.71875 63.234375 
Q 38.140625 66.40625 31.78125 66.40625 
Q 25.390625 66.40625 21.84375 63.234375 
Q 18.3125 60.0625 18.3125 54.390625 
z
" id="DejaVuSans-38"/>
      <path d="M 11.71875 12.40625 
L 22.015625 12.40625 
L 22.015625 4 
L 14.015625 -11.625 
L 7.71875 -11.625 
L 11.71875 4 
z
" id="DejaVuSans-2c"/>
      <path d="M 16.890625 72.90625 
L 30.171875 72.90625 
L 50.296875 10.40625 
L 62.5 72.90625 
L 72.125 72.90625 
L 57.90625 0 
L 44.578125 0 
L 24.515625 62.890625 
L 12.3125 0 
L 2.6875 0 
z
" id="DejaVuSans-Oblique-4e"/>
      <path d="M 16.890625 72.90625 
L 31.6875 72.90625 
L 40.1875 23.78125 
L 68.40625 72.90625 
L 83.59375 72.90625 
L 69.390625 0 
L 59.8125 0 
L 72.21875 63.921875 
L 43.609375 14.015625 
L 33.984375 14.015625 
L 24.703125 64.109375 
L 12.3125 0 
L 2.6875 0 
z
" id="DejaVuSans-Oblique-4d"/>
     </defs>
     <g transform="translate(388.9 51.158438)scale(0.1 -0.1)">
      <use transform="translate(0 0.78125)" xlink:href="#DejaVuSans-Oblique-6e"/>
      <use transform="translate(82.861328 0.78125)" xlink:href="#DejaVuSans-3d"/>
      <use transform="translate(186.132812 0.78125)" xlink:href="#DejaVuSans-31"/>
      <use transform="translate(249.755859 0.78125)" xlink:href="#DejaVuSans-38"/>
      <use transform="translate(313.378906 0.78125)" xlink:href="#DejaVuSans-30"/>
      <use transform="translate(377.001953 0.78125)" xlink:href="#DejaVuSans-2c"/>
      <use transform="translate(428.271484 0.78125)" xlink:href="#DejaVuSans-Oblique-4e"/>
      <use transform="translate(522.558594 0.78125)" xlink:href="#DejaVuSans-3d"/>
      <use transform="translate(625.830078 0.78125)" xlink:href="#DejaVuSans-33"/>
      <use transform="translate(689.453125 0.78125)" xlink:href="#DejaVuSans-30"/>
      <use transform="translate(753.076172 0.78125)" xlink:href="#DejaVuSans-30"/>
      <use transform="translate(816.699219 0.78125)" xlink:href="#DejaVuSans-2c"/>
      <use transform="translate(867.96875 0.78125)" xlink:href="#DejaVuSans-Oblique-4d"/>
      <use transform="translate(973.730469 0.78125)" xlink:href="#DejaVuSans-3d"/>
      <use transform="translate(1077.001953 0.78125)" xlink:href="#DejaVuSans-34"/>
      <use transform="translate(1140.625 0.78125)" xlink:href="#DejaVuSans-30"/>
     </g>
    </g>
    <g id="line2d_26"/>
    <g id="line2d_27">
     <g>
      <use style="fill:#ff7f0e;stroke:#ff7f0e;" x="370.9" xlink:href="#m70a3d5f25c" y="62.336563"/>
     </g>
    </g>
    <g id="text_21">
     <!-- $n=120,N=300,M=36$ -->
     <defs>
      <path d="M 33.015625 40.375 
Q 26.375 40.375 22.484375 35.828125 
Q 18.609375 31.296875 18.609375 23.390625 
Q 18.609375 15.53125 22.484375 10.953125 
Q 26.375 6.390625 33.015625 6.390625 
Q 39.65625 6.390625 43.53125 10.953125 
Q 47.40625 15.53125 47.40625 23.390625 
Q 47.40625 31.296875 43.53125 35.828125 
Q 39.65625 40.375 33.015625 40.375 
z
M 52.59375 71.296875 
L 52.59375 62.3125 
Q 48.875 64.0625 45.09375 64.984375 
Q 41.3125 65.921875 37.59375 65.921875 
Q 27.828125 65.921875 22.671875 59.328125 
Q 17.53125 52.734375 16.796875 39.40625 
Q 19.671875 43.65625 24.015625 45.921875 
Q 28.375 48.1875 33.59375 48.1875 
Q 44.578125 48.1875 50.953125 41.515625 
Q 57.328125 34.859375 57.328125 23.390625 
Q 57.328125 12.15625 50.6875 5.359375 
Q 44.046875 -1.421875 33.015625 -1.421875 
Q 20.359375 -1.421875 13.671875 8.265625 
Q 6.984375 17.96875 6.984375 36.375 
Q 6.984375 53.65625 15.1875 63.9375 
Q 23.390625 74.21875 37.203125 74.21875 
Q 40.921875 74.21875 44.703125 73.484375 
Q 48.484375 72.75 52.59375 71.296875 
z
" id="DejaVuSans-36"/>
     </defs>
     <g transform="translate(388.9 65.836563)scale(0.1 -0.1)">
      <use transform="translate(0 0.78125)" xlink:href="#DejaVuSans-Oblique-6e"/>
      <use transform="translate(82.861328 0.78125)" xlink:href="#DejaVuSans-3d"/>
      <use transform="translate(186.132812 0.78125)" xlink:href="#DejaVuSans-31"/>
      <use transform="translate(249.755859 0.78125)" xlink:href="#DejaVuSans-32"/>
      <use transform="translate(313.378906 0.78125)" xlink:href="#DejaVuSans-30"/>
      <use transform="translate(377.001953 0.78125)" xlink:href="#DejaVuSans-2c"/>
      <use transform="translate(428.271484 0.78125)" xlink:href="#DejaVuSans-Oblique-4e"/>
      <use transform="translate(522.558594 0.78125)" xlink:href="#DejaVuSans-3d"/>
      <use transform="translate(625.830078 0.78125)" xlink:href="#DejaVuSans-33"/>
      <use transform="translate(689.453125 0.78125)" xlink:href="#DejaVuSans-30"/>
      <use transform="translate(753.076172 0.78125)" xlink:href="#DejaVuSans-30"/>
      <use transform="translate(816.699219 0.78125)" xlink:href="#DejaVuSans-2c"/>
      <use transform="translate(867.96875 0.78125)" xlink:href="#DejaVuSans-Oblique-4d"/>
      <use transform="translate(973.730469 0.78125)" xlink:href="#DejaVuSans-3d"/>
      <use transform="translate(1077.001953 0.78125)" xlink:href="#DejaVuSans-33"/>
      <use transform="translate(1140.625 0.78125)" xlink:href="#DejaVuSans-36"/>
     </g>
    </g>
    <g id="line2d_28"/>
    <g id="line2d_29">
     <g>
      <use style="fill:#2ca02c;stroke:#2ca02c;" x="370.9" xlink:href="#mbd385fe037" y="77.014688"/>
     </g>
    </g>
    <g id="text_22">
     <!-- $n=60,N=300,M=30$ -->
     <g transform="translate(388.9 80.514688)scale(0.1 -0.1)">
      <use transform="translate(0 0.78125)" xlink:href="#DejaVuSans-Oblique-6e"/>
      <use transform="translate(82.861328 0.78125)" xlink:href="#DejaVuSans-3d"/>
      <use transform="translate(186.132812 0.78125)" xlink:href="#DejaVuSans-36"/>
      <use transform="translate(249.755859 0.78125)" xlink:href="#DejaVuSans-30"/>
      <use transform="translate(313.378906 0.78125)" xlink:href="#DejaVuSans-2c"/>
      <use transform="translate(364.648438 0.78125)" xlink:href="#DejaVuSans-Oblique-4e"/>
      <use transform="translate(458.935547 0.78125)" xlink:href="#DejaVuSans-3d"/>
      <use transform="translate(562.207031 0.78125)" xlink:href="#DejaVuSans-33"/>
      <use transform="translate(625.830078 0.78125)" xlink:href="#DejaVuSans-30"/>
      <use transform="translate(689.453125 0.78125)" xlink:href="#DejaVuSans-30"/>
      <use transform="translate(753.076172 0.78125)" xlink:href="#DejaVuSans-2c"/>
      <use transform="translate(804.345703 0.78125)" xlink:href="#DejaVuSans-Oblique-4d"/>
      <use transform="translate(910.107422 0.78125)" xlink:href="#DejaVuSans-3d"/>
      <use transform="translate(1013.378906 0.78125)" xlink:href="#DejaVuSans-33"/>
      <use transform="translate(1077.001953 0.78125)" xlink:href="#DejaVuSans-30"/>
     </g>
    </g>
   </g>
  </g>
 </g>
 <defs>
  <clipPath id="p6d771c61fb">
   <rect height="221.76" width="446.4" x="72" y="34.56"/>
  </clipPath>
 </defs>
</svg>
