<?xml version="1.0" encoding="utf-8" standalone="no"?>
<!DOCTYPE svg PUBLIC "-//W3C//DTD SVG 1.1//EN"
  "http://www.w3.org/Graphics/SVG/1.1/DTD/svg11.dtd">
<!-- Created with matplotlib (http://matplotlib.org/) -->
<svg height="288pt" version="1.1" viewBox="0 0 576 288" width="576pt" xmlns="http://www.w3.org/2000/svg" xmlns:xlink="http://www.w3.org/1999/xlink">
 <defs>
  <style type="text/css">
*{stroke-linecap:butt;stroke-linejoin:round;}
  </style>
 </defs>
 <g id="figure_1">
  <g id="patch_1">
   <path d="M 0 288 
L 576 288 
L 576 0 
L 0 0 
z
" style="fill:#ffffff;"/>
  </g>
  <g id="axes_1">
   <g id="patch_2">
    <path d="M 72 256.32 
L 518.4 256.32 
L 518.4 34.56 
L 72 34.56 
z
" style="fill:#ffffff;"/>
   </g>
   <g id="matplotlib.axis_1">
    <g id="xtick_1">
     <g id="line2d_1">
      <defs>
       <path d="M 0 0 
L 0 3.5 
" id="mda60cb0355" style="stroke:#000000;stroke-width:0.8;"/>
      </defs>
      <g>
       <use style="stroke:#000000;stroke-width:0.8;" x="92.290909" xlink:href="#mda60cb0355" y="256.32"/>
      </g>
     </g>
     <g id="text_1">
      <!-- 0 -->
      <defs>
       <path d="M 31.78125 66.40625 
Q 24.171875 66.40625 20.328125 58.90625 
Q 16.5 51.421875 16.5 36.375 
Q 16.5 21.390625 20.328125 13.890625 
Q 24.171875 6.390625 31.78125 6.390625 
Q 39.453125 6.390625 43.28125 13.890625 
Q 47.125 21.390625 47.125 36.375 
Q 47.125 51.421875 43.28125 58.90625 
Q 39.453125 66.40625 31.78125 66.40625 
z
M 31.78125 74.21875 
Q 44.046875 74.21875 50.515625 64.515625 
Q 56.984375 54.828125 56.984375 36.375 
Q 56.984375 17.96875 50.515625 8.265625 
Q 44.046875 -1.421875 31.78125 -1.421875 
Q 19.53125 -1.421875 13.0625 8.265625 
Q 6.59375 17.96875 6.59375 36.375 
Q 6.59375 54.828125 13.0625 64.515625 
Q 19.53125 74.21875 31.78125 74.21875 
z
" id="DejaVuSans-30"/>
      </defs>
      <g transform="translate(89.109659 270.918437)scale(0.1 -0.1)">
       <use xlink:href="#DejaVuSans-30"/>
      </g>
     </g>
    </g>
    <g id="xtick_2">
     <g id="line2d_2">
      <g>
       <use style="stroke:#000000;stroke-width:0.8;" x="144.318881" xlink:href="#mda60cb0355" y="256.32"/>
      </g>
     </g>
     <g id="text_2">
      <!-- 5 -->
      <defs>
       <path d="M 10.796875 72.90625 
L 49.515625 72.90625 
L 49.515625 64.59375 
L 19.828125 64.59375 
L 19.828125 46.734375 
Q 21.96875 47.46875 24.109375 47.828125 
Q 26.265625 48.1875 28.421875 48.1875 
Q 40.625 48.1875 47.75 41.5 
Q 54.890625 34.8125 54.890625 23.390625 
Q 54.890625 11.625 47.5625 5.09375 
Q 40.234375 -1.421875 26.90625 -1.421875 
Q 22.3125 -1.421875 17.546875 -0.640625 
Q 12.796875 0.140625 7.71875 1.703125 
L 7.71875 11.625 
Q 12.109375 9.234375 16.796875 8.0625 
Q 21.484375 6.890625 26.703125 6.890625 
Q 35.15625 6.890625 40.078125 11.328125 
Q 45.015625 15.765625 45.015625 23.390625 
Q 45.015625 31 40.078125 35.4375 
Q 35.15625 39.890625 26.703125 39.890625 
Q 22.75 39.890625 18.8125 39.015625 
Q 14.890625 38.140625 10.796875 36.28125 
z
" id="DejaVuSans-35"/>
      </defs>
      <g transform="translate(141.137631 270.918437)scale(0.1 -0.1)">
       <use xlink:href="#DejaVuSans-35"/>
      </g>
     </g>
    </g>
    <g id="xtick_3">
     <g id="line2d_3">
      <g>
       <use style="stroke:#000000;stroke-width:0.8;" x="196.346853" xlink:href="#mda60cb0355" y="256.32"/>
      </g>
     </g>
     <g id="text_3">
      <!-- 10 -->
      <defs>
       <path d="M 12.40625 8.296875 
L 28.515625 8.296875 
L 28.515625 63.921875 
L 10.984375 60.40625 
L 10.984375 69.390625 
L 28.421875 72.90625 
L 38.28125 72.90625 
L 38.28125 8.296875 
L 54.390625 8.296875 
L 54.390625 0 
L 12.40625 0 
z
" id="DejaVuSans-31"/>
      </defs>
      <g transform="translate(189.984353 270.918437)scale(0.1 -0.1)">
       <use xlink:href="#DejaVuSans-31"/>
       <use x="63.623047" xlink:href="#DejaVuSans-30"/>
      </g>
     </g>
    </g>
    <g id="xtick_4">
     <g id="line2d_4">
      <g>
       <use style="stroke:#000000;stroke-width:0.8;" x="248.374825" xlink:href="#mda60cb0355" y="256.32"/>
      </g>
     </g>
     <g id="text_4">
      <!-- 15 -->
      <g transform="translate(242.012325 270.918437)scale(0.1 -0.1)">
       <use xlink:href="#DejaVuSans-31"/>
       <use x="63.623047" xlink:href="#DejaVuSans-35"/>
      </g>
     </g>
    </g>
    <g id="xtick_5">
     <g id="line2d_5">
      <g>
       <use style="stroke:#000000;stroke-width:0.8;" x="300.402797" xlink:href="#mda60cb0355" y="256.32"/>
      </g>
     </g>
     <g id="text_5">
      <!-- 20 -->
      <defs>
       <path d="M 19.1875 8.296875 
L 53.609375 8.296875 
L 53.609375 0 
L 7.328125 0 
L 7.328125 8.296875 
Q 12.9375 14.109375 22.625 23.890625 
Q 32.328125 33.6875 34.8125 36.53125 
Q 39.546875 41.84375 41.421875 45.53125 
Q 43.3125 49.21875 43.3125 52.78125 
Q 43.3125 58.59375 39.234375 62.25 
Q 35.15625 65.921875 28.609375 65.921875 
Q 23.96875 65.921875 18.8125 64.3125 
Q 13.671875 62.703125 7.8125 59.421875 
L 7.8125 69.390625 
Q 13.765625 71.78125 18.9375 73 
Q 24.125 74.21875 28.421875 74.21875 
Q 39.75 74.21875 46.484375 68.546875 
Q 53.21875 62.890625 53.21875 53.421875 
Q 53.21875 48.921875 51.53125 44.890625 
Q 49.859375 40.875 45.40625 35.40625 
Q 44.1875 33.984375 37.640625 27.21875 
Q 31.109375 20.453125 19.1875 8.296875 
z
" id="DejaVuSans-32"/>
      </defs>
      <g transform="translate(294.040297 270.918437)scale(0.1 -0.1)">
       <use xlink:href="#DejaVuSans-32"/>
       <use x="63.623047" xlink:href="#DejaVuSans-30"/>
      </g>
     </g>
    </g>
    <g id="xtick_6">
     <g id="line2d_6">
      <g>
       <use style="stroke:#000000;stroke-width:0.8;" x="352.430769" xlink:href="#mda60cb0355" y="256.32"/>
      </g>
     </g>
     <g id="text_6">
      <!-- 25 -->
      <g transform="translate(346.068269 270.918437)scale(0.1 -0.1)">
       <use xlink:href="#DejaVuSans-32"/>
       <use x="63.623047" xlink:href="#DejaVuSans-35"/>
      </g>
     </g>
    </g>
    <g id="xtick_7">
     <g id="line2d_7">
      <g>
       <use style="stroke:#000000;stroke-width:0.8;" x="404.458741" xlink:href="#mda60cb0355" y="256.32"/>
      </g>
     </g>
     <g id="text_7">
      <!-- 30 -->
      <defs>
       <path d="M 40.578125 39.3125 
Q 47.65625 37.796875 51.625 33 
Q 55.609375 28.21875 55.609375 21.1875 
Q 55.609375 10.40625 48.1875 4.484375 
Q 40.765625 -1.421875 27.09375 -1.421875 
Q 22.515625 -1.421875 17.65625 -0.515625 
Q 12.796875 0.390625 7.625 2.203125 
L 7.625 11.71875 
Q 11.71875 9.328125 16.59375 8.109375 
Q 21.484375 6.890625 26.8125 6.890625 
Q 36.078125 6.890625 40.9375 10.546875 
Q 45.796875 14.203125 45.796875 21.1875 
Q 45.796875 27.640625 41.28125 31.265625 
Q 36.765625 34.90625 28.71875 34.90625 
L 20.21875 34.90625 
L 20.21875 43.015625 
L 29.109375 43.015625 
Q 36.375 43.015625 40.234375 45.921875 
Q 44.09375 48.828125 44.09375 54.296875 
Q 44.09375 59.90625 40.109375 62.90625 
Q 36.140625 65.921875 28.71875 65.921875 
Q 24.65625 65.921875 20.015625 65.03125 
Q 15.375 64.15625 9.8125 62.3125 
L 9.8125 71.09375 
Q 15.4375 72.65625 20.34375 73.4375 
Q 25.25 74.21875 29.59375 74.21875 
Q 40.828125 74.21875 47.359375 69.109375 
Q 53.90625 64.015625 53.90625 55.328125 
Q 53.90625 49.265625 50.4375 45.09375 
Q 46.96875 40.921875 40.578125 39.3125 
z
" id="DejaVuSans-33"/>
      </defs>
      <g transform="translate(398.096241 270.918437)scale(0.1 -0.1)">
       <use xlink:href="#DejaVuSans-33"/>
       <use x="63.623047" xlink:href="#DejaVuSans-30"/>
      </g>
     </g>
    </g>
    <g id="xtick_8">
     <g id="line2d_8">
      <g>
       <use style="stroke:#000000;stroke-width:0.8;" x="456.486713" xlink:href="#mda60cb0355" y="256.32"/>
      </g>
     </g>
     <g id="text_8">
      <!-- 35 -->
      <g transform="translate(450.124213 270.918437)scale(0.1 -0.1)">
       <use xlink:href="#DejaVuSans-33"/>
       <use x="63.623047" xlink:href="#DejaVuSans-35"/>
      </g>
     </g>
    </g>
    <g id="xtick_9">
     <g id="line2d_9">
      <g>
       <use style="stroke:#000000;stroke-width:0.8;" x="508.514685" xlink:href="#mda60cb0355" y="256.32"/>
      </g>
     </g>
     <g id="text_9">
      <!-- 40 -->
      <defs>
       <path d="M 37.796875 64.3125 
L 12.890625 25.390625 
L 37.796875 25.390625 
z
M 35.203125 72.90625 
L 47.609375 72.90625 
L 47.609375 25.390625 
L 58.015625 25.390625 
L 58.015625 17.1875 
L 47.609375 17.1875 
L 47.609375 0 
L 37.796875 0 
L 37.796875 17.1875 
L 4.890625 17.1875 
L 4.890625 26.703125 
z
" id="DejaVuSans-34"/>
      </defs>
      <g transform="translate(502.152185 270.918437)scale(0.1 -0.1)">
       <use xlink:href="#DejaVuSans-34"/>
       <use x="63.623047" xlink:href="#DejaVuSans-30"/>
      </g>
     </g>
    </g>
    <g id="text_10">
     <!-- $k$ values -->
     <defs>
      <path d="M 18.3125 75.984375 
L 27.296875 75.984375 
L 18.703125 31.6875 
L 49.515625 54.6875 
L 61.1875 54.6875 
L 26.8125 28.515625 
L 51.90625 0 
L 41.015625 0 
L 17.671875 26.703125 
L 12.5 0 
L 3.515625 0 
z
" id="DejaVuSans-Oblique-6b"/>
      <path id="DejaVuSans-20"/>
      <path d="M 2.984375 54.6875 
L 12.5 54.6875 
L 29.59375 8.796875 
L 46.6875 54.6875 
L 56.203125 54.6875 
L 35.6875 0 
L 23.484375 0 
z
" id="DejaVuSans-76"/>
      <path d="M 34.28125 27.484375 
Q 23.390625 27.484375 19.1875 25 
Q 14.984375 22.515625 14.984375 16.5 
Q 14.984375 11.71875 18.140625 8.90625 
Q 21.296875 6.109375 26.703125 6.109375 
Q 34.1875 6.109375 38.703125 11.40625 
Q 43.21875 16.703125 43.21875 25.484375 
L 43.21875 27.484375 
z
M 52.203125 31.203125 
L 52.203125 0 
L 43.21875 0 
L 43.21875 8.296875 
Q 40.140625 3.328125 35.546875 0.953125 
Q 30.953125 -1.421875 24.3125 -1.421875 
Q 15.921875 -1.421875 10.953125 3.296875 
Q 6 8.015625 6 15.921875 
Q 6 25.140625 12.171875 29.828125 
Q 18.359375 34.515625 30.609375 34.515625 
L 43.21875 34.515625 
L 43.21875 35.40625 
Q 43.21875 41.609375 39.140625 45 
Q 35.0625 48.390625 27.6875 48.390625 
Q 23 48.390625 18.546875 47.265625 
Q 14.109375 46.140625 10.015625 43.890625 
L 10.015625 52.203125 
Q 14.9375 54.109375 19.578125 55.046875 
Q 24.21875 56 28.609375 56 
Q 40.484375 56 46.34375 49.84375 
Q 52.203125 43.703125 52.203125 31.203125 
z
" id="DejaVuSans-61"/>
      <path d="M 9.421875 75.984375 
L 18.40625 75.984375 
L 18.40625 0 
L 9.421875 0 
z
" id="DejaVuSans-6c"/>
      <path d="M 8.5 21.578125 
L 8.5 54.6875 
L 17.484375 54.6875 
L 17.484375 21.921875 
Q 17.484375 14.15625 20.5 10.265625 
Q 23.53125 6.390625 29.59375 6.390625 
Q 36.859375 6.390625 41.078125 11.03125 
Q 45.3125 15.671875 45.3125 23.6875 
L 45.3125 54.6875 
L 54.296875 54.6875 
L 54.296875 0 
L 45.3125 0 
L 45.3125 8.40625 
Q 42.046875 3.421875 37.71875 1 
Q 33.40625 -1.421875 27.6875 -1.421875 
Q 18.265625 -1.421875 13.375 4.4375 
Q 8.5 10.296875 8.5 21.578125 
z
M 31.109375 56 
z
" id="DejaVuSans-75"/>
      <path d="M 56.203125 29.59375 
L 56.203125 25.203125 
L 14.890625 25.203125 
Q 15.484375 15.921875 20.484375 11.0625 
Q 25.484375 6.203125 34.421875 6.203125 
Q 39.59375 6.203125 44.453125 7.46875 
Q 49.3125 8.734375 54.109375 11.28125 
L 54.109375 2.78125 
Q 49.265625 0.734375 44.1875 -0.34375 
Q 39.109375 -1.421875 33.890625 -1.421875 
Q 20.796875 -1.421875 13.15625 6.1875 
Q 5.515625 13.8125 5.515625 26.8125 
Q 5.515625 40.234375 12.765625 48.109375 
Q 20.015625 56 32.328125 56 
Q 43.359375 56 49.78125 48.890625 
Q 56.203125 41.796875 56.203125 29.59375 
z
M 47.21875 32.234375 
Q 47.125 39.59375 43.09375 43.984375 
Q 39.0625 48.390625 32.421875 48.390625 
Q 24.90625 48.390625 20.390625 44.140625 
Q 15.875 39.890625 15.1875 32.171875 
z
" id="DejaVuSans-65"/>
      <path d="M 44.28125 53.078125 
L 44.28125 44.578125 
Q 40.484375 46.53125 36.375 47.5 
Q 32.28125 48.484375 27.875 48.484375 
Q 21.1875 48.484375 17.84375 46.4375 
Q 14.5 44.390625 14.5 40.28125 
Q 14.5 37.15625 16.890625 35.375 
Q 19.28125 33.59375 26.515625 31.984375 
L 29.59375 31.296875 
Q 39.15625 29.25 43.1875 25.515625 
Q 47.21875 21.78125 47.21875 15.09375 
Q 47.21875 7.46875 41.1875 3.015625 
Q 35.15625 -1.421875 24.609375 -1.421875 
Q 20.21875 -1.421875 15.453125 -0.5625 
Q 10.6875 0.296875 5.421875 2 
L 5.421875 11.28125 
Q 10.40625 8.6875 15.234375 7.390625 
Q 20.0625 6.109375 24.8125 6.109375 
Q 31.15625 6.109375 34.5625 8.28125 
Q 37.984375 10.453125 37.984375 14.40625 
Q 37.984375 18.0625 35.515625 20.015625 
Q 33.0625 21.96875 24.703125 23.78125 
L 21.578125 24.515625 
Q 13.234375 26.265625 9.515625 29.90625 
Q 5.8125 33.546875 5.8125 39.890625 
Q 5.8125 47.609375 11.28125 51.796875 
Q 16.75 56 26.8125 56 
Q 31.78125 56 36.171875 55.265625 
Q 40.578125 54.546875 44.28125 53.078125 
z
" id="DejaVuSans-73"/>
     </defs>
     <g transform="translate(274.45 284.596563)scale(0.1 -0.1)">
      <use transform="translate(0 0.015625)" xlink:href="#DejaVuSans-Oblique-6b"/>
      <use transform="translate(57.910156 0.015625)" xlink:href="#DejaVuSans-20"/>
      <use transform="translate(89.697266 0.015625)" xlink:href="#DejaVuSans-76"/>
      <use transform="translate(148.876953 0.015625)" xlink:href="#DejaVuSans-61"/>
      <use transform="translate(210.15625 0.015625)" xlink:href="#DejaVuSans-6c"/>
      <use transform="translate(237.939453 0.015625)" xlink:href="#DejaVuSans-75"/>
      <use transform="translate(301.318359 0.015625)" xlink:href="#DejaVuSans-65"/>
      <use transform="translate(362.841797 0.015625)" xlink:href="#DejaVuSans-73"/>
     </g>
    </g>
   </g>
   <g id="matplotlib.axis_2">
    <g id="ytick_1">
     <g id="line2d_10">
      <defs>
       <path d="M 0 0 
L -3.5 0 
" id="ma9cf68b242" style="stroke:#000000;stroke-width:0.8;"/>
      </defs>
      <g>
       <use style="stroke:#000000;stroke-width:0.8;" x="72" xlink:href="#ma9cf68b242" y="246.24"/>
      </g>
     </g>
     <g id="text_11">
      <!-- 0.000 -->
      <defs>
       <path d="M 10.6875 12.40625 
L 21 12.40625 
L 21 0 
L 10.6875 0 
z
" id="DejaVuSans-2e"/>
      </defs>
      <g transform="translate(36.371875 250.039219)scale(0.1 -0.1)">
       <use xlink:href="#DejaVuSans-30"/>
       <use x="63.623047" xlink:href="#DejaVuSans-2e"/>
       <use x="95.410156" xlink:href="#DejaVuSans-30"/>
       <use x="159.033203" xlink:href="#DejaVuSans-30"/>
       <use x="222.65625" xlink:href="#DejaVuSans-30"/>
      </g>
     </g>
    </g>
    <g id="ytick_2">
     <g id="line2d_11">
      <g>
       <use style="stroke:#000000;stroke-width:0.8;" x="72" xlink:href="#ma9cf68b242" y="219.940549"/>
      </g>
     </g>
     <g id="text_12">
      <!-- 0.025 -->
      <g transform="translate(36.371875 223.739768)scale(0.1 -0.1)">
       <use xlink:href="#DejaVuSans-30"/>
       <use x="63.623047" xlink:href="#DejaVuSans-2e"/>
       <use x="95.410156" xlink:href="#DejaVuSans-30"/>
       <use x="159.033203" xlink:href="#DejaVuSans-32"/>
       <use x="222.65625" xlink:href="#DejaVuSans-35"/>
      </g>
     </g>
    </g>
    <g id="ytick_3">
     <g id="line2d_12">
      <g>
       <use style="stroke:#000000;stroke-width:0.8;" x="72" xlink:href="#ma9cf68b242" y="193.641098"/>
      </g>
     </g>
     <g id="text_13">
      <!-- 0.050 -->
      <g transform="translate(36.371875 197.440317)scale(0.1 -0.1)">
       <use xlink:href="#DejaVuSans-30"/>
       <use x="63.623047" xlink:href="#DejaVuSans-2e"/>
       <use x="95.410156" xlink:href="#DejaVuSans-30"/>
       <use x="159.033203" xlink:href="#DejaVuSans-35"/>
       <use x="222.65625" xlink:href="#DejaVuSans-30"/>
      </g>
     </g>
    </g>
    <g id="ytick_4">
     <g id="line2d_13">
      <g>
       <use style="stroke:#000000;stroke-width:0.8;" x="72" xlink:href="#ma9cf68b242" y="167.341648"/>
      </g>
     </g>
     <g id="text_14">
      <!-- 0.075 -->
      <defs>
       <path d="M 8.203125 72.90625 
L 55.078125 72.90625 
L 55.078125 68.703125 
L 28.609375 0 
L 18.3125 0 
L 43.21875 64.59375 
L 8.203125 64.59375 
z
" id="DejaVuSans-37"/>
      </defs>
      <g transform="translate(36.371875 171.140866)scale(0.1 -0.1)">
       <use xlink:href="#DejaVuSans-30"/>
       <use x="63.623047" xlink:href="#DejaVuSans-2e"/>
       <use x="95.410156" xlink:href="#DejaVuSans-30"/>
       <use x="159.033203" xlink:href="#DejaVuSans-37"/>
       <use x="222.65625" xlink:href="#DejaVuSans-35"/>
      </g>
     </g>
    </g>
    <g id="ytick_5">
     <g id="line2d_14">
      <g>
       <use style="stroke:#000000;stroke-width:0.8;" x="72" xlink:href="#ma9cf68b242" y="141.042197"/>
      </g>
     </g>
     <g id="text_15">
      <!-- 0.100 -->
      <g transform="translate(36.371875 144.841416)scale(0.1 -0.1)">
       <use xlink:href="#DejaVuSans-30"/>
       <use x="63.623047" xlink:href="#DejaVuSans-2e"/>
       <use x="95.410156" xlink:href="#DejaVuSans-31"/>
       <use x="159.033203" xlink:href="#DejaVuSans-30"/>
       <use x="222.65625" xlink:href="#DejaVuSans-30"/>
      </g>
     </g>
    </g>
    <g id="ytick_6">
     <g id="line2d_15">
      <g>
       <use style="stroke:#000000;stroke-width:0.8;" x="72" xlink:href="#ma9cf68b242" y="114.742746"/>
      </g>
     </g>
     <g id="text_16">
      <!-- 0.125 -->
      <g transform="translate(36.371875 118.541965)scale(0.1 -0.1)">
       <use xlink:href="#DejaVuSans-30"/>
       <use x="63.623047" xlink:href="#DejaVuSans-2e"/>
       <use x="95.410156" xlink:href="#DejaVuSans-31"/>
       <use x="159.033203" xlink:href="#DejaVuSans-32"/>
       <use x="222.65625" xlink:href="#DejaVuSans-35"/>
      </g>
     </g>
    </g>
    <g id="ytick_7">
     <g id="line2d_16">
      <g>
       <use style="stroke:#000000;stroke-width:0.8;" x="72" xlink:href="#ma9cf68b242" y="88.443295"/>
      </g>
     </g>
     <g id="text_17">
      <!-- 0.150 -->
      <g transform="translate(36.371875 92.242514)scale(0.1 -0.1)">
       <use xlink:href="#DejaVuSans-30"/>
       <use x="63.623047" xlink:href="#DejaVuSans-2e"/>
       <use x="95.410156" xlink:href="#DejaVuSans-31"/>
       <use x="159.033203" xlink:href="#DejaVuSans-35"/>
       <use x="222.65625" xlink:href="#DejaVuSans-30"/>
      </g>
     </g>
    </g>
    <g id="ytick_8">
     <g id="line2d_17">
      <g>
       <use style="stroke:#000000;stroke-width:0.8;" x="72" xlink:href="#ma9cf68b242" y="62.143844"/>
      </g>
     </g>
     <g id="text_18">
      <!-- 0.175 -->
      <g transform="translate(36.371875 65.943063)scale(0.1 -0.1)">
       <use xlink:href="#DejaVuSans-30"/>
       <use x="63.623047" xlink:href="#DejaVuSans-2e"/>
       <use x="95.410156" xlink:href="#DejaVuSans-31"/>
       <use x="159.033203" xlink:href="#DejaVuSans-37"/>
       <use x="222.65625" xlink:href="#DejaVuSans-35"/>
      </g>
     </g>
    </g>
    <g id="ytick_9">
     <g id="line2d_18">
      <g>
       <use style="stroke:#000000;stroke-width:0.8;" x="72" xlink:href="#ma9cf68b242" y="35.844394"/>
      </g>
     </g>
     <g id="text_19">
      <!-- 0.200 -->
      <g transform="translate(36.371875 39.643612)scale(0.1 -0.1)">
       <use xlink:href="#DejaVuSans-30"/>
       <use x="63.623047" xlink:href="#DejaVuSans-2e"/>
       <use x="95.410156" xlink:href="#DejaVuSans-32"/>
       <use x="159.033203" xlink:href="#DejaVuSans-30"/>
       <use x="222.65625" xlink:href="#DejaVuSans-30"/>
      </g>
     </g>
    </g>
    <g id="text_20">
     <!-- $P(X=k)$ -->
     <defs>
      <path d="M 16.890625 72.90625 
L 39.703125 72.90625 
Q 49.65625 72.90625 54.875 68.265625 
Q 60.109375 63.625 60.109375 54.6875 
Q 60.109375 42.671875 52.390625 35.984375 
Q 44.671875 29.296875 30.71875 29.296875 
L 18.3125 29.296875 
L 12.59375 0 
L 2.6875 0 
z
M 25.203125 64.796875 
L 19.921875 37.40625 
L 32.328125 37.40625 
Q 40.71875 37.40625 45.203125 41.703125 
Q 49.703125 46 49.703125 54 
Q 49.703125 59.125 46.65625 61.953125 
Q 43.609375 64.796875 38.09375 64.796875 
z
" id="DejaVuSans-Oblique-50"/>
      <path d="M 31 75.875 
Q 24.46875 64.65625 21.28125 53.65625 
Q 18.109375 42.671875 18.109375 31.390625 
Q 18.109375 20.125 21.3125 9.0625 
Q 24.515625 -2 31 -13.1875 
L 23.1875 -13.1875 
Q 15.875 -1.703125 12.234375 9.375 
Q 8.59375 20.453125 8.59375 31.390625 
Q 8.59375 42.28125 12.203125 53.3125 
Q 15.828125 64.359375 23.1875 75.875 
z
" id="DejaVuSans-28"/>
      <path d="M 13.71875 72.90625 
L 23.6875 72.90625 
L 36.1875 46.578125 
L 58.796875 72.90625 
L 70.3125 72.90625 
L 40.28125 38.09375 
L 58.40625 0 
L 48.484375 0 
L 33.796875 30.71875 
L 7.171875 0 
L -4.296875 0 
L 29.78125 39.203125 
z
" id="DejaVuSans-Oblique-58"/>
      <path d="M 10.59375 45.40625 
L 73.1875 45.40625 
L 73.1875 37.203125 
L 10.59375 37.203125 
z
M 10.59375 25.484375 
L 73.1875 25.484375 
L 73.1875 17.1875 
L 10.59375 17.1875 
z
" id="DejaVuSans-3d"/>
      <path d="M 8.015625 75.875 
L 15.828125 75.875 
Q 23.140625 64.359375 26.78125 53.3125 
Q 30.421875 42.28125 30.421875 31.390625 
Q 30.421875 20.453125 26.78125 9.375 
Q 23.140625 -1.703125 15.828125 -13.1875 
L 8.015625 -13.1875 
Q 14.5 -2 17.703125 9.0625 
Q 20.90625 20.125 20.90625 31.390625 
Q 20.90625 42.671875 17.703125 53.65625 
Q 14.5 64.65625 8.015625 75.875 
z
" id="DejaVuSans-29"/>
     </defs>
     <g transform="translate(30.292188 164.84)rotate(-90)scale(0.1 -0.1)">
      <use transform="translate(0 0.015625)" xlink:href="#DejaVuSans-Oblique-50"/>
      <use transform="translate(60.302734 0.015625)" xlink:href="#DejaVuSans-28"/>
      <use transform="translate(99.316406 0.015625)" xlink:href="#DejaVuSans-Oblique-58"/>
      <use transform="translate(187.304688 0.015625)" xlink:href="#DejaVuSans-3d"/>
      <use transform="translate(290.576172 0.015625)" xlink:href="#DejaVuSans-Oblique-6b"/>
      <use transform="translate(348.486328 0.015625)" xlink:href="#DejaVuSans-29"/>
     </g>
    </g>
   </g>
   <g id="line2d_19">
    <path clip-path="url(#p79bd300300)" d="M 92.290909 246.238997 
L 102.696503 246.219935 
L 113.102098 246.049384 
L 123.507692 245.096301 
L 133.913287 241.379281 
L 144.318881 230.685698 
L 154.724476 207.354246 
L 165.13007 168.468492 
L 175.535664 119.861299 
L 185.941259 77.735065 
L 196.346853 60.884572 
L 206.752448 77.735065 
L 217.158042 119.861299 
L 227.563636 168.468492 
L 237.969231 207.354246 
L 248.374825 230.685698 
L 258.78042 241.379281 
L 269.186014 245.096301 
L 279.591608 246.049384 
L 289.997203 246.219935 
" style="fill:none;opacity:0.6;stroke:#808080;stroke-linecap:square;stroke-width:1.5;"/>
   </g>
   <g id="line2d_20">
    <defs>
     <path d="M 0 3 
C 0.795609 3 1.55874 2.683901 2.12132 2.12132 
C 2.683901 1.55874 3 0.795609 3 0 
C 3 -0.795609 2.683901 -1.55874 2.12132 -2.12132 
C 1.55874 -2.683901 0.795609 -3 0 -3 
C -0.795609 -3 -1.55874 -2.683901 -2.12132 -2.12132 
C -2.683901 -1.55874 -3 -0.795609 -3 0 
C -3 0.795609 -2.683901 1.55874 -2.12132 2.12132 
C -1.55874 2.683901 -0.795609 3 0 3 
z
" id="mcdd8f1f9dd" style="stroke:#1f77b4;"/>
    </defs>
    <g clip-path="url(#p79bd300300)">
     <use style="fill:#1f77b4;stroke:#1f77b4;" x="92.290909" xlink:href="#mcdd8f1f9dd" y="246.238997"/>
     <use style="fill:#1f77b4;stroke:#1f77b4;" x="102.696503" xlink:href="#mcdd8f1f9dd" y="246.219935"/>
     <use style="fill:#1f77b4;stroke:#1f77b4;" x="113.102098" xlink:href="#mcdd8f1f9dd" y="246.049384"/>
     <use style="fill:#1f77b4;stroke:#1f77b4;" x="123.507692" xlink:href="#mcdd8f1f9dd" y="245.096301"/>
     <use style="fill:#1f77b4;stroke:#1f77b4;" x="133.913287" xlink:href="#mcdd8f1f9dd" y="241.379281"/>
     <use style="fill:#1f77b4;stroke:#1f77b4;" x="144.318881" xlink:href="#mcdd8f1f9dd" y="230.685698"/>
     <use style="fill:#1f77b4;stroke:#1f77b4;" x="154.724476" xlink:href="#mcdd8f1f9dd" y="207.354246"/>
     <use style="fill:#1f77b4;stroke:#1f77b4;" x="165.13007" xlink:href="#mcdd8f1f9dd" y="168.468492"/>
     <use style="fill:#1f77b4;stroke:#1f77b4;" x="175.535664" xlink:href="#mcdd8f1f9dd" y="119.861299"/>
     <use style="fill:#1f77b4;stroke:#1f77b4;" x="185.941259" xlink:href="#mcdd8f1f9dd" y="77.735065"/>
     <use style="fill:#1f77b4;stroke:#1f77b4;" x="196.346853" xlink:href="#mcdd8f1f9dd" y="60.884572"/>
     <use style="fill:#1f77b4;stroke:#1f77b4;" x="206.752448" xlink:href="#mcdd8f1f9dd" y="77.735065"/>
     <use style="fill:#1f77b4;stroke:#1f77b4;" x="217.158042" xlink:href="#mcdd8f1f9dd" y="119.861299"/>
     <use style="fill:#1f77b4;stroke:#1f77b4;" x="227.563636" xlink:href="#mcdd8f1f9dd" y="168.468492"/>
     <use style="fill:#1f77b4;stroke:#1f77b4;" x="237.969231" xlink:href="#mcdd8f1f9dd" y="207.354246"/>
     <use style="fill:#1f77b4;stroke:#1f77b4;" x="248.374825" xlink:href="#mcdd8f1f9dd" y="230.685698"/>
     <use style="fill:#1f77b4;stroke:#1f77b4;" x="258.78042" xlink:href="#mcdd8f1f9dd" y="241.379281"/>
     <use style="fill:#1f77b4;stroke:#1f77b4;" x="269.186014" xlink:href="#mcdd8f1f9dd" y="245.096301"/>
     <use style="fill:#1f77b4;stroke:#1f77b4;" x="279.591608" xlink:href="#mcdd8f1f9dd" y="246.049384"/>
     <use style="fill:#1f77b4;stroke:#1f77b4;" x="289.997203" xlink:href="#mcdd8f1f9dd" y="246.219935"/>
    </g>
   </g>
   <g id="line2d_21">
    <path clip-path="url(#p79bd300300)" d="M 92.290909 246.24 
L 102.696503 246.239998 
L 113.102098 246.239962 
L 123.507692 246.239469 
L 133.913287 246.234732 
L 144.318881 246.200667 
L 154.724476 246.010556 
L 165.13007 245.169262 
L 175.535664 242.18012 
L 185.941259 233.609263 
L 196.346853 213.821108 
L 206.752448 177.472653 
L 217.158042 125.897143 
L 227.563636 73.44 
L 237.969231 44.64 
L 248.374825 58.08 
L 258.78042 109.04 
L 269.186014 170.91451 
L 279.591608 216.946754 
L 289.997203 239.045168 
" style="fill:none;opacity:0.6;stroke:#808080;stroke-linecap:square;stroke-width:1.5;"/>
   </g>
   <g id="line2d_22">
    <defs>
     <path d="M 0 3 
C 0.795609 3 1.55874 2.683901 2.12132 2.12132 
C 2.683901 1.55874 3 0.795609 3 0 
C 3 -0.795609 2.683901 -1.55874 2.12132 -2.12132 
C 1.55874 -2.683901 0.795609 -3 0 -3 
C -0.795609 -3 -1.55874 -2.683901 -2.12132 -2.12132 
C -2.683901 -1.55874 -3 -0.795609 -3 0 
C -3 0.795609 -2.683901 1.55874 -2.12132 2.12132 
C -1.55874 2.683901 -0.795609 3 0 3 
z
" id="m7a26e45958" style="stroke:#ff7f0e;"/>
    </defs>
    <g clip-path="url(#p79bd300300)">
     <use style="fill:#ff7f0e;stroke:#ff7f0e;" x="92.290909" xlink:href="#m7a26e45958" y="246.24"/>
     <use style="fill:#ff7f0e;stroke:#ff7f0e;" x="102.696503" xlink:href="#m7a26e45958" y="246.239998"/>
     <use style="fill:#ff7f0e;stroke:#ff7f0e;" x="113.102098" xlink:href="#m7a26e45958" y="246.239962"/>
     <use style="fill:#ff7f0e;stroke:#ff7f0e;" x="123.507692" xlink:href="#m7a26e45958" y="246.239469"/>
     <use style="fill:#ff7f0e;stroke:#ff7f0e;" x="133.913287" xlink:href="#m7a26e45958" y="246.234732"/>
     <use style="fill:#ff7f0e;stroke:#ff7f0e;" x="144.318881" xlink:href="#m7a26e45958" y="246.200667"/>
     <use style="fill:#ff7f0e;stroke:#ff7f0e;" x="154.724476" xlink:href="#m7a26e45958" y="246.010556"/>
     <use style="fill:#ff7f0e;stroke:#ff7f0e;" x="165.13007" xlink:href="#m7a26e45958" y="245.169262"/>
     <use style="fill:#ff7f0e;stroke:#ff7f0e;" x="175.535664" xlink:href="#m7a26e45958" y="242.18012"/>
     <use style="fill:#ff7f0e;stroke:#ff7f0e;" x="185.941259" xlink:href="#m7a26e45958" y="233.609263"/>
     <use style="fill:#ff7f0e;stroke:#ff7f0e;" x="196.346853" xlink:href="#m7a26e45958" y="213.821108"/>
     <use style="fill:#ff7f0e;stroke:#ff7f0e;" x="206.752448" xlink:href="#m7a26e45958" y="177.472653"/>
     <use style="fill:#ff7f0e;stroke:#ff7f0e;" x="217.158042" xlink:href="#m7a26e45958" y="125.897143"/>
     <use style="fill:#ff7f0e;stroke:#ff7f0e;" x="227.563636" xlink:href="#m7a26e45958" y="73.44"/>
     <use style="fill:#ff7f0e;stroke:#ff7f0e;" x="237.969231" xlink:href="#m7a26e45958" y="44.64"/>
     <use style="fill:#ff7f0e;stroke:#ff7f0e;" x="248.374825" xlink:href="#m7a26e45958" y="58.08"/>
     <use style="fill:#ff7f0e;stroke:#ff7f0e;" x="258.78042" xlink:href="#m7a26e45958" y="109.04"/>
     <use style="fill:#ff7f0e;stroke:#ff7f0e;" x="269.186014" xlink:href="#m7a26e45958" y="170.91451"/>
     <use style="fill:#ff7f0e;stroke:#ff7f0e;" x="279.591608" xlink:href="#m7a26e45958" y="216.946754"/>
     <use style="fill:#ff7f0e;stroke:#ff7f0e;" x="289.997203" xlink:href="#m7a26e45958" y="239.045168"/>
    </g>
   </g>
   <g id="line2d_23">
    <path clip-path="url(#p79bd300300)" d="M 92.290909 246.24 
L 102.696503 246.24 
L 113.102098 246.239999 
L 123.507692 246.239991 
L 133.913287 246.239913 
L 144.318881 246.23937 
L 154.724476 246.236328 
L 165.13007 246.222162 
L 175.535664 246.16642 
L 185.941259 245.978382 
L 196.346853 245.428985 
L 206.752448 244.028141 
L 217.158042 240.894675 
L 227.563636 234.726992 
L 237.969231 224.036342 
L 248.374825 207.753659 
L 258.78042 186.105092 
L 269.186014 161.34366 
L 279.591608 137.761343 
L 289.997203 120.633134 
L 300.402797 114.352791 
L 310.808392 120.633134 
L 321.213986 137.761343 
L 331.61958 161.34366 
L 342.025175 186.105092 
L 352.430769 207.753659 
L 362.836364 224.036342 
L 373.241958 234.726992 
L 383.647552 240.894675 
L 394.053147 244.028141 
L 404.458741 245.428985 
L 414.864336 245.978382 
L 425.26993 246.16642 
L 435.675524 246.222162 
L 446.081119 246.236328 
L 456.486713 246.23937 
L 466.892308 246.239913 
L 477.297902 246.239991 
L 487.703497 246.239999 
L 498.109091 246.24 
" style="fill:none;opacity:0.6;stroke:#808080;stroke-linecap:square;stroke-width:1.5;"/>
   </g>
   <g id="line2d_24">
    <defs>
     <path d="M 0 3 
C 0.795609 3 1.55874 2.683901 2.12132 2.12132 
C 2.683901 1.55874 3 0.795609 3 0 
C 3 -0.795609 2.683901 -1.55874 2.12132 -2.12132 
C 1.55874 -2.683901 0.795609 -3 0 -3 
C -0.795609 -3 -1.55874 -2.683901 -2.12132 -2.12132 
C -2.683901 -1.55874 -3 -0.795609 -3 0 
C -3 0.795609 -2.683901 1.55874 -2.12132 2.12132 
C -1.55874 2.683901 -0.795609 3 0 3 
z
" id="m1a31a8e3f9" style="stroke:#2ca02c;"/>
    </defs>
    <g clip-path="url(#p79bd300300)">
     <use style="fill:#2ca02c;stroke:#2ca02c;" x="92.290909" xlink:href="#m1a31a8e3f9" y="246.24"/>
     <use style="fill:#2ca02c;stroke:#2ca02c;" x="102.696503" xlink:href="#m1a31a8e3f9" y="246.24"/>
     <use style="fill:#2ca02c;stroke:#2ca02c;" x="113.102098" xlink:href="#m1a31a8e3f9" y="246.239999"/>
     <use style="fill:#2ca02c;stroke:#2ca02c;" x="123.507692" xlink:href="#m1a31a8e3f9" y="246.239991"/>
     <use style="fill:#2ca02c;stroke:#2ca02c;" x="133.913287" xlink:href="#m1a31a8e3f9" y="246.239913"/>
     <use style="fill:#2ca02c;stroke:#2ca02c;" x="144.318881" xlink:href="#m1a31a8e3f9" y="246.23937"/>
     <use style="fill:#2ca02c;stroke:#2ca02c;" x="154.724476" xlink:href="#m1a31a8e3f9" y="246.236328"/>
     <use style="fill:#2ca02c;stroke:#2ca02c;" x="165.13007" xlink:href="#m1a31a8e3f9" y="246.222162"/>
     <use style="fill:#2ca02c;stroke:#2ca02c;" x="175.535664" xlink:href="#m1a31a8e3f9" y="246.16642"/>
     <use style="fill:#2ca02c;stroke:#2ca02c;" x="185.941259" xlink:href="#m1a31a8e3f9" y="245.978382"/>
     <use style="fill:#2ca02c;stroke:#2ca02c;" x="196.346853" xlink:href="#m1a31a8e3f9" y="245.428985"/>
     <use style="fill:#2ca02c;stroke:#2ca02c;" x="206.752448" xlink:href="#m1a31a8e3f9" y="244.028141"/>
     <use style="fill:#2ca02c;stroke:#2ca02c;" x="217.158042" xlink:href="#m1a31a8e3f9" y="240.894675"/>
     <use style="fill:#2ca02c;stroke:#2ca02c;" x="227.563636" xlink:href="#m1a31a8e3f9" y="234.726992"/>
     <use style="fill:#2ca02c;stroke:#2ca02c;" x="237.969231" xlink:href="#m1a31a8e3f9" y="224.036342"/>
     <use style="fill:#2ca02c;stroke:#2ca02c;" x="248.374825" xlink:href="#m1a31a8e3f9" y="207.753659"/>
     <use style="fill:#2ca02c;stroke:#2ca02c;" x="258.78042" xlink:href="#m1a31a8e3f9" y="186.105092"/>
     <use style="fill:#2ca02c;stroke:#2ca02c;" x="269.186014" xlink:href="#m1a31a8e3f9" y="161.34366"/>
     <use style="fill:#2ca02c;stroke:#2ca02c;" x="279.591608" xlink:href="#m1a31a8e3f9" y="137.761343"/>
     <use style="fill:#2ca02c;stroke:#2ca02c;" x="289.997203" xlink:href="#m1a31a8e3f9" y="120.633134"/>
     <use style="fill:#2ca02c;stroke:#2ca02c;" x="300.402797" xlink:href="#m1a31a8e3f9" y="114.352791"/>
     <use style="fill:#2ca02c;stroke:#2ca02c;" x="310.808392" xlink:href="#m1a31a8e3f9" y="120.633134"/>
     <use style="fill:#2ca02c;stroke:#2ca02c;" x="321.213986" xlink:href="#m1a31a8e3f9" y="137.761343"/>
     <use style="fill:#2ca02c;stroke:#2ca02c;" x="331.61958" xlink:href="#m1a31a8e3f9" y="161.34366"/>
     <use style="fill:#2ca02c;stroke:#2ca02c;" x="342.025175" xlink:href="#m1a31a8e3f9" y="186.105092"/>
     <use style="fill:#2ca02c;stroke:#2ca02c;" x="352.430769" xlink:href="#m1a31a8e3f9" y="207.753659"/>
     <use style="fill:#2ca02c;stroke:#2ca02c;" x="362.836364" xlink:href="#m1a31a8e3f9" y="224.036342"/>
     <use style="fill:#2ca02c;stroke:#2ca02c;" x="373.241958" xlink:href="#m1a31a8e3f9" y="234.726992"/>
     <use style="fill:#2ca02c;stroke:#2ca02c;" x="383.647552" xlink:href="#m1a31a8e3f9" y="240.894675"/>
     <use style="fill:#2ca02c;stroke:#2ca02c;" x="394.053147" xlink:href="#m1a31a8e3f9" y="244.028141"/>
     <use style="fill:#2ca02c;stroke:#2ca02c;" x="404.458741" xlink:href="#m1a31a8e3f9" y="245.428985"/>
     <use style="fill:#2ca02c;stroke:#2ca02c;" x="414.864336" xlink:href="#m1a31a8e3f9" y="245.978382"/>
     <use style="fill:#2ca02c;stroke:#2ca02c;" x="425.26993" xlink:href="#m1a31a8e3f9" y="246.16642"/>
     <use style="fill:#2ca02c;stroke:#2ca02c;" x="435.675524" xlink:href="#m1a31a8e3f9" y="246.222162"/>
     <use style="fill:#2ca02c;stroke:#2ca02c;" x="446.081119" xlink:href="#m1a31a8e3f9" y="246.236328"/>
     <use style="fill:#2ca02c;stroke:#2ca02c;" x="456.486713" xlink:href="#m1a31a8e3f9" y="246.23937"/>
     <use style="fill:#2ca02c;stroke:#2ca02c;" x="466.892308" xlink:href="#m1a31a8e3f9" y="246.239913"/>
     <use style="fill:#2ca02c;stroke:#2ca02c;" x="477.297902" xlink:href="#m1a31a8e3f9" y="246.239991"/>
     <use style="fill:#2ca02c;stroke:#2ca02c;" x="487.703497" xlink:href="#m1a31a8e3f9" y="246.239999"/>
     <use style="fill:#2ca02c;stroke:#2ca02c;" x="498.109091" xlink:href="#m1a31a8e3f9" y="246.24"/>
    </g>
   </g>
   <g id="patch_3">
    <path d="M 72 256.32 
L 72 34.56 
" style="fill:none;stroke:#000000;stroke-linecap:square;stroke-linejoin:miter;stroke-width:0.8;"/>
   </g>
   <g id="patch_4">
    <path d="M 518.4 256.32 
L 518.4 34.56 
" style="fill:none;stroke:#000000;stroke-linecap:square;stroke-linejoin:miter;stroke-width:0.8;"/>
   </g>
   <g id="patch_5">
    <path d="M 72 256.32 
L 518.4 256.32 
" style="fill:none;stroke:#000000;stroke-linecap:square;stroke-linejoin:miter;stroke-width:0.8;"/>
   </g>
   <g id="patch_6">
    <path d="M 72 34.56 
L 518.4 34.56 
" style="fill:none;stroke:#000000;stroke-linecap:square;stroke-linejoin:miter;stroke-width:0.8;"/>
   </g>
   <g id="legend_1">
    <g id="patch_7">
     <path d="M 408.4 86.655313 
L 511.4 86.655313 
Q 513.4 86.655313 513.4 84.655313 
L 513.4 41.56 
Q 513.4 39.56 511.4 39.56 
L 408.4 39.56 
Q 406.4 39.56 406.4 41.56 
L 406.4 84.655313 
Q 406.4 86.655313 408.4 86.655313 
z
" style="fill:#ffffff;opacity:0.8;stroke:#cccccc;stroke-linejoin:miter;"/>
    </g>
    <g id="line2d_25"/>
    <g id="line2d_26">
     <g>
      <use style="fill:#1f77b4;stroke:#1f77b4;" x="420.4" xlink:href="#mcdd8f1f9dd" y="47.658438"/>
     </g>
    </g>
    <g id="text_21">
     <!-- $n=20, p=0.5$ -->
     <defs>
      <path d="M 55.71875 33.015625 
L 49.3125 0 
L 40.28125 0 
L 46.6875 32.671875 
Q 47.125 34.96875 47.359375 36.71875 
Q 47.609375 38.484375 47.609375 39.5 
Q 47.609375 43.609375 45.015625 45.890625 
Q 42.4375 48.1875 37.796875 48.1875 
Q 30.5625 48.1875 25.34375 43.375 
Q 20.125 38.578125 18.5 30.328125 
L 12.5 0 
L 3.515625 0 
L 14.109375 54.6875 
L 23.09375 54.6875 
L 21.296875 46.09375 
Q 25.046875 50.828125 30.3125 53.40625 
Q 35.59375 56 41.40625 56 
Q 48.640625 56 52.609375 52.09375 
Q 56.59375 48.1875 56.59375 41.109375 
Q 56.59375 39.359375 56.375 37.359375 
Q 56.15625 35.359375 55.71875 33.015625 
z
" id="DejaVuSans-Oblique-6e"/>
      <path d="M 11.71875 12.40625 
L 22.015625 12.40625 
L 22.015625 4 
L 14.015625 -11.625 
L 7.71875 -11.625 
L 11.71875 4 
z
" id="DejaVuSans-2c"/>
      <path d="M 49.609375 33.6875 
Q 49.609375 40.875 46.484375 44.671875 
Q 43.359375 48.484375 37.5 48.484375 
Q 33.5 48.484375 29.859375 46.4375 
Q 26.21875 44.390625 23.390625 40.484375 
Q 20.609375 36.625 18.9375 31.15625 
Q 17.28125 25.6875 17.28125 20.3125 
Q 17.28125 13.484375 20.40625 9.796875 
Q 23.53125 6.109375 29.296875 6.109375 
Q 33.546875 6.109375 37.1875 8.109375 
Q 40.828125 10.109375 43.40625 13.921875 
Q 46.1875 17.921875 47.890625 23.34375 
Q 49.609375 28.765625 49.609375 33.6875 
z
M 21.78125 46.390625 
Q 25.390625 51.125 30.296875 53.5625 
Q 35.203125 56 41.21875 56 
Q 49.609375 56 54.25 50.5 
Q 58.890625 45.015625 58.890625 35.109375 
Q 58.890625 27 56 19.65625 
Q 53.125 12.3125 47.703125 6.5 
Q 44.09375 2.640625 39.546875 0.609375 
Q 35.015625 -1.421875 29.984375 -1.421875 
Q 24.171875 -1.421875 20.21875 1 
Q 16.265625 3.421875 14.3125 8.203125 
L 8.6875 -20.796875 
L -0.296875 -20.796875 
L 14.40625 54.6875 
L 23.390625 54.6875 
z
" id="DejaVuSans-Oblique-70"/>
     </defs>
     <g transform="translate(438.4 51.158438)scale(0.1 -0.1)">
      <use transform="translate(0 0.78125)" xlink:href="#DejaVuSans-Oblique-6e"/>
      <use transform="translate(82.861328 0.78125)" xlink:href="#DejaVuSans-3d"/>
      <use transform="translate(186.132812 0.78125)" xlink:href="#DejaVuSans-32"/>
      <use transform="translate(249.755859 0.78125)" xlink:href="#DejaVuSans-30"/>
      <use transform="translate(313.378906 0.78125)" xlink:href="#DejaVuSans-2c"/>
      <use transform="translate(364.648438 0.78125)" xlink:href="#DejaVuSans-Oblique-70"/>
      <use transform="translate(447.607422 0.78125)" xlink:href="#DejaVuSans-3d"/>
      <use transform="translate(550.878906 0.78125)" xlink:href="#DejaVuSans-30"/>
      <use transform="translate(614.501953 0.78125)" xlink:href="#DejaVuSans-2e"/>
      <use transform="translate(646.289062 0.78125)" xlink:href="#DejaVuSans-35"/>
     </g>
    </g>
    <g id="line2d_27"/>
    <g id="line2d_28">
     <g>
      <use style="fill:#ff7f0e;stroke:#ff7f0e;" x="420.4" xlink:href="#m7a26e45958" y="62.356875"/>
     </g>
    </g>
    <g id="text_22">
     <!-- $n=20, p=0.7$ -->
     <g transform="translate(438.4 65.856875)scale(0.1 -0.1)">
      <use transform="translate(0 0.78125)" xlink:href="#DejaVuSans-Oblique-6e"/>
      <use transform="translate(82.861328 0.78125)" xlink:href="#DejaVuSans-3d"/>
      <use transform="translate(186.132812 0.78125)" xlink:href="#DejaVuSans-32"/>
      <use transform="translate(249.755859 0.78125)" xlink:href="#DejaVuSans-30"/>
      <use transform="translate(313.378906 0.78125)" xlink:href="#DejaVuSans-2c"/>
      <use transform="translate(364.648438 0.78125)" xlink:href="#DejaVuSans-Oblique-70"/>
      <use transform="translate(447.607422 0.78125)" xlink:href="#DejaVuSans-3d"/>
      <use transform="translate(550.878906 0.78125)" xlink:href="#DejaVuSans-30"/>
      <use transform="translate(614.501953 0.78125)" xlink:href="#DejaVuSans-2e"/>
      <use transform="translate(646.179688 0.78125)" xlink:href="#DejaVuSans-37"/>
     </g>
    </g>
    <g id="line2d_29"/>
    <g id="line2d_30">
     <g>
      <use style="fill:#2ca02c;stroke:#2ca02c;" x="420.4" xlink:href="#m1a31a8e3f9" y="77.055313"/>
     </g>
    </g>
    <g id="text_23">
     <!-- $n=40, p=0.5$ -->
     <g transform="translate(438.4 80.555313)scale(0.1 -0.1)">
      <use transform="translate(0 0.78125)" xlink:href="#DejaVuSans-Oblique-6e"/>
      <use transform="translate(82.861328 0.78125)" xlink:href="#DejaVuSans-3d"/>
      <use transform="translate(186.132812 0.78125)" xlink:href="#DejaVuSans-34"/>
      <use transform="translate(249.755859 0.78125)" xlink:href="#DejaVuSans-30"/>
      <use transform="translate(313.378906 0.78125)" xlink:href="#DejaVuSans-2c"/>
      <use transform="translate(364.648438 0.78125)" xlink:href="#DejaVuSans-Oblique-70"/>
      <use transform="translate(447.607422 0.78125)" xlink:href="#DejaVuSans-3d"/>
      <use transform="translate(550.878906 0.78125)" xlink:href="#DejaVuSans-30"/>
      <use transform="translate(614.501953 0.78125)" xlink:href="#DejaVuSans-2e"/>
      <use transform="translate(646.289062 0.78125)" xlink:href="#DejaVuSans-35"/>
     </g>
    </g>
   </g>
  </g>
 </g>
 <defs>
  <clipPath id="p79bd300300">
   <rect height="221.76" width="446.4" x="72" y="34.56"/>
  </clipPath>
 </defs>
</svg>
