<?xml version="1.0" encoding="utf-8" standalone="no"?>
<!DOCTYPE svg PUBLIC "-//W3C//DTD SVG 1.1//EN"
  "http://www.w3.org/Graphics/SVG/1.1/DTD/svg11.dtd">
<!-- Created with matplotlib (http://matplotlib.org/) -->
<svg height="288pt" version="1.1" viewBox="0 0 576 288" width="576pt" xmlns="http://www.w3.org/2000/svg" xmlns:xlink="http://www.w3.org/1999/xlink">
 <defs>
  <style type="text/css">
*{stroke-linecap:butt;stroke-linejoin:round;}
  </style>
 </defs>
 <g id="figure_1">
  <g id="patch_1">
   <path d="M 0 288 
L 576 288 
L 576 0 
L 0 0 
z
" style="fill:#ffffff;"/>
  </g>
  <g id="axes_1">
   <g id="patch_2">
    <path d="M 72 256.32 
L 518.4 256.32 
L 518.4 34.56 
L 72 34.56 
z
" style="fill:#ffffff;"/>
   </g>
   <g id="matplotlib.axis_1">
    <g id="xtick_1">
     <g id="line2d_1">
      <defs>
       <path d="M 0 0 
L 0 3.5 
" id="m5e8ed30562" style="stroke:#000000;stroke-width:0.8;"/>
      </defs>
      <g>
       <use style="stroke:#000000;stroke-width:0.8;" x="92.290909" xlink:href="#m5e8ed30562" y="256.32"/>
      </g>
     </g>
     <g id="text_1">
      <!-- 0.0 -->
      <defs>
       <path d="M 31.78125 66.40625 
Q 24.171875 66.40625 20.328125 58.90625 
Q 16.5 51.421875 16.5 36.375 
Q 16.5 21.390625 20.328125 13.890625 
Q 24.171875 6.390625 31.78125 6.390625 
Q 39.453125 6.390625 43.28125 13.890625 
Q 47.125 21.390625 47.125 36.375 
Q 47.125 51.421875 43.28125 58.90625 
Q 39.453125 66.40625 31.78125 66.40625 
z
M 31.78125 74.21875 
Q 44.046875 74.21875 50.515625 64.515625 
Q 56.984375 54.828125 56.984375 36.375 
Q 56.984375 17.96875 50.515625 8.265625 
Q 44.046875 -1.421875 31.78125 -1.421875 
Q 19.53125 -1.421875 13.0625 8.265625 
Q 6.59375 17.96875 6.59375 36.375 
Q 6.59375 54.828125 13.0625 64.515625 
Q 19.53125 74.21875 31.78125 74.21875 
z
" id="DejaVuSans-30"/>
       <path d="M 10.6875 12.40625 
L 21 12.40625 
L 21 0 
L 10.6875 0 
z
" id="DejaVuSans-2e"/>
      </defs>
      <g transform="translate(84.339347 270.918437)scale(0.1 -0.1)">
       <use xlink:href="#DejaVuSans-30"/>
       <use x="63.623047" xlink:href="#DejaVuSans-2e"/>
       <use x="95.410156" xlink:href="#DejaVuSans-30"/>
      </g>
     </g>
    </g>
    <g id="xtick_2">
     <g id="line2d_2">
      <g>
       <use style="stroke:#000000;stroke-width:0.8;" x="173.454545" xlink:href="#m5e8ed30562" y="256.32"/>
      </g>
     </g>
     <g id="text_2">
      <!-- 0.2 -->
      <defs>
       <path d="M 19.1875 8.296875 
L 53.609375 8.296875 
L 53.609375 0 
L 7.328125 0 
L 7.328125 8.296875 
Q 12.9375 14.109375 22.625 23.890625 
Q 32.328125 33.6875 34.8125 36.53125 
Q 39.546875 41.84375 41.421875 45.53125 
Q 43.3125 49.21875 43.3125 52.78125 
Q 43.3125 58.59375 39.234375 62.25 
Q 35.15625 65.921875 28.609375 65.921875 
Q 23.96875 65.921875 18.8125 64.3125 
Q 13.671875 62.703125 7.8125 59.421875 
L 7.8125 69.390625 
Q 13.765625 71.78125 18.9375 73 
Q 24.125 74.21875 28.421875 74.21875 
Q 39.75 74.21875 46.484375 68.546875 
Q 53.21875 62.890625 53.21875 53.421875 
Q 53.21875 48.921875 51.53125 44.890625 
Q 49.859375 40.875 45.40625 35.40625 
Q 44.1875 33.984375 37.640625 27.21875 
Q 31.109375 20.453125 19.1875 8.296875 
z
" id="DejaVuSans-32"/>
      </defs>
      <g transform="translate(165.502983 270.918437)scale(0.1 -0.1)">
       <use xlink:href="#DejaVuSans-30"/>
       <use x="63.623047" xlink:href="#DejaVuSans-2e"/>
       <use x="95.410156" xlink:href="#DejaVuSans-32"/>
      </g>
     </g>
    </g>
    <g id="xtick_3">
     <g id="line2d_3">
      <g>
       <use style="stroke:#000000;stroke-width:0.8;" x="254.618182" xlink:href="#m5e8ed30562" y="256.32"/>
      </g>
     </g>
     <g id="text_3">
      <!-- 0.4 -->
      <defs>
       <path d="M 37.796875 64.3125 
L 12.890625 25.390625 
L 37.796875 25.390625 
z
M 35.203125 72.90625 
L 47.609375 72.90625 
L 47.609375 25.390625 
L 58.015625 25.390625 
L 58.015625 17.1875 
L 47.609375 17.1875 
L 47.609375 0 
L 37.796875 0 
L 37.796875 17.1875 
L 4.890625 17.1875 
L 4.890625 26.703125 
z
" id="DejaVuSans-34"/>
      </defs>
      <g transform="translate(246.666619 270.918437)scale(0.1 -0.1)">
       <use xlink:href="#DejaVuSans-30"/>
       <use x="63.623047" xlink:href="#DejaVuSans-2e"/>
       <use x="95.410156" xlink:href="#DejaVuSans-34"/>
      </g>
     </g>
    </g>
    <g id="xtick_4">
     <g id="line2d_4">
      <g>
       <use style="stroke:#000000;stroke-width:0.8;" x="335.781818" xlink:href="#m5e8ed30562" y="256.32"/>
      </g>
     </g>
     <g id="text_4">
      <!-- 0.6 -->
      <defs>
       <path d="M 33.015625 40.375 
Q 26.375 40.375 22.484375 35.828125 
Q 18.609375 31.296875 18.609375 23.390625 
Q 18.609375 15.53125 22.484375 10.953125 
Q 26.375 6.390625 33.015625 6.390625 
Q 39.65625 6.390625 43.53125 10.953125 
Q 47.40625 15.53125 47.40625 23.390625 
Q 47.40625 31.296875 43.53125 35.828125 
Q 39.65625 40.375 33.015625 40.375 
z
M 52.59375 71.296875 
L 52.59375 62.3125 
Q 48.875 64.0625 45.09375 64.984375 
Q 41.3125 65.921875 37.59375 65.921875 
Q 27.828125 65.921875 22.671875 59.328125 
Q 17.53125 52.734375 16.796875 39.40625 
Q 19.671875 43.65625 24.015625 45.921875 
Q 28.375 48.1875 33.59375 48.1875 
Q 44.578125 48.1875 50.953125 41.515625 
Q 57.328125 34.859375 57.328125 23.390625 
Q 57.328125 12.15625 50.6875 5.359375 
Q 44.046875 -1.421875 33.015625 -1.421875 
Q 20.359375 -1.421875 13.671875 8.265625 
Q 6.984375 17.96875 6.984375 36.375 
Q 6.984375 53.65625 15.1875 63.9375 
Q 23.390625 74.21875 37.203125 74.21875 
Q 40.921875 74.21875 44.703125 73.484375 
Q 48.484375 72.75 52.59375 71.296875 
z
" id="DejaVuSans-36"/>
      </defs>
      <g transform="translate(327.830256 270.918437)scale(0.1 -0.1)">
       <use xlink:href="#DejaVuSans-30"/>
       <use x="63.623047" xlink:href="#DejaVuSans-2e"/>
       <use x="95.410156" xlink:href="#DejaVuSans-36"/>
      </g>
     </g>
    </g>
    <g id="xtick_5">
     <g id="line2d_5">
      <g>
       <use style="stroke:#000000;stroke-width:0.8;" x="416.945455" xlink:href="#m5e8ed30562" y="256.32"/>
      </g>
     </g>
     <g id="text_5">
      <!-- 0.8 -->
      <defs>
       <path d="M 31.78125 34.625 
Q 24.75 34.625 20.71875 30.859375 
Q 16.703125 27.09375 16.703125 20.515625 
Q 16.703125 13.921875 20.71875 10.15625 
Q 24.75 6.390625 31.78125 6.390625 
Q 38.8125 6.390625 42.859375 10.171875 
Q 46.921875 13.96875 46.921875 20.515625 
Q 46.921875 27.09375 42.890625 30.859375 
Q 38.875 34.625 31.78125 34.625 
z
M 21.921875 38.8125 
Q 15.578125 40.375 12.03125 44.71875 
Q 8.5 49.078125 8.5 55.328125 
Q 8.5 64.0625 14.71875 69.140625 
Q 20.953125 74.21875 31.78125 74.21875 
Q 42.671875 74.21875 48.875 69.140625 
Q 55.078125 64.0625 55.078125 55.328125 
Q 55.078125 49.078125 51.53125 44.71875 
Q 48 40.375 41.703125 38.8125 
Q 48.828125 37.15625 52.796875 32.3125 
Q 56.78125 27.484375 56.78125 20.515625 
Q 56.78125 9.90625 50.3125 4.234375 
Q 43.84375 -1.421875 31.78125 -1.421875 
Q 19.734375 -1.421875 13.25 4.234375 
Q 6.78125 9.90625 6.78125 20.515625 
Q 6.78125 27.484375 10.78125 32.3125 
Q 14.796875 37.15625 21.921875 38.8125 
z
M 18.3125 54.390625 
Q 18.3125 48.734375 21.84375 45.5625 
Q 25.390625 42.390625 31.78125 42.390625 
Q 38.140625 42.390625 41.71875 45.5625 
Q 45.3125 48.734375 45.3125 54.390625 
Q 45.3125 60.0625 41.71875 63.234375 
Q 38.140625 66.40625 31.78125 66.40625 
Q 25.390625 66.40625 21.84375 63.234375 
Q 18.3125 60.0625 18.3125 54.390625 
z
" id="DejaVuSans-38"/>
      </defs>
      <g transform="translate(408.993892 270.918437)scale(0.1 -0.1)">
       <use xlink:href="#DejaVuSans-30"/>
       <use x="63.623047" xlink:href="#DejaVuSans-2e"/>
       <use x="95.410156" xlink:href="#DejaVuSans-38"/>
      </g>
     </g>
    </g>
    <g id="xtick_6">
     <g id="line2d_6">
      <g>
       <use style="stroke:#000000;stroke-width:0.8;" x="498.109091" xlink:href="#m5e8ed30562" y="256.32"/>
      </g>
     </g>
     <g id="text_6">
      <!-- 1.0 -->
      <defs>
       <path d="M 12.40625 8.296875 
L 28.515625 8.296875 
L 28.515625 63.921875 
L 10.984375 60.40625 
L 10.984375 69.390625 
L 28.421875 72.90625 
L 38.28125 72.90625 
L 38.28125 8.296875 
L 54.390625 8.296875 
L 54.390625 0 
L 12.40625 0 
z
" id="DejaVuSans-31"/>
      </defs>
      <g transform="translate(490.157528 270.918437)scale(0.1 -0.1)">
       <use xlink:href="#DejaVuSans-31"/>
       <use x="63.623047" xlink:href="#DejaVuSans-2e"/>
       <use x="95.410156" xlink:href="#DejaVuSans-30"/>
      </g>
     </g>
    </g>
    <g id="text_7">
     <!-- $x$ -->
     <defs>
      <path d="M 60.015625 54.6875 
L 34.90625 27.875 
L 50.296875 0 
L 39.984375 0 
L 28.421875 21.6875 
L 8.296875 0 
L -2.59375 0 
L 24.3125 28.8125 
L 10.015625 54.6875 
L 20.3125 54.6875 
L 30.8125 34.90625 
L 49.125 54.6875 
z
" id="DejaVuSans-Oblique-78"/>
     </defs>
     <g transform="translate(292.2 284.596563)scale(0.1 -0.1)">
      <use transform="translate(0 0.3125)" xlink:href="#DejaVuSans-Oblique-78"/>
     </g>
    </g>
   </g>
   <g id="matplotlib.axis_2">
    <g id="ytick_1">
     <g id="line2d_7">
      <defs>
       <path d="M 0 0 
L -3.5 0 
" id="m53ddd55987" style="stroke:#000000;stroke-width:0.8;"/>
      </defs>
      <g>
       <use style="stroke:#000000;stroke-width:0.8;" x="72" xlink:href="#m53ddd55987" y="246.24"/>
      </g>
     </g>
     <g id="text_8">
      <!-- 0 -->
      <g transform="translate(58.6375 250.039219)scale(0.1 -0.1)">
       <use xlink:href="#DejaVuSans-30"/>
      </g>
     </g>
    </g>
    <g id="ytick_2">
     <g id="line2d_8">
      <g>
       <use style="stroke:#000000;stroke-width:0.8;" x="72" xlink:href="#m53ddd55987" y="203.797761"/>
      </g>
     </g>
     <g id="text_9">
      <!-- 1 -->
      <g transform="translate(58.6375 207.59698)scale(0.1 -0.1)">
       <use xlink:href="#DejaVuSans-31"/>
      </g>
     </g>
    </g>
    <g id="ytick_3">
     <g id="line2d_9">
      <g>
       <use style="stroke:#000000;stroke-width:0.8;" x="72" xlink:href="#m53ddd55987" y="161.355522"/>
      </g>
     </g>
     <g id="text_10">
      <!-- 2 -->
      <g transform="translate(58.6375 165.154741)scale(0.1 -0.1)">
       <use xlink:href="#DejaVuSans-32"/>
      </g>
     </g>
    </g>
    <g id="ytick_4">
     <g id="line2d_10">
      <g>
       <use style="stroke:#000000;stroke-width:0.8;" x="72" xlink:href="#m53ddd55987" y="118.913283"/>
      </g>
     </g>
     <g id="text_11">
      <!-- 3 -->
      <defs>
       <path d="M 40.578125 39.3125 
Q 47.65625 37.796875 51.625 33 
Q 55.609375 28.21875 55.609375 21.1875 
Q 55.609375 10.40625 48.1875 4.484375 
Q 40.765625 -1.421875 27.09375 -1.421875 
Q 22.515625 -1.421875 17.65625 -0.515625 
Q 12.796875 0.390625 7.625 2.203125 
L 7.625 11.71875 
Q 11.71875 9.328125 16.59375 8.109375 
Q 21.484375 6.890625 26.8125 6.890625 
Q 36.078125 6.890625 40.9375 10.546875 
Q 45.796875 14.203125 45.796875 21.1875 
Q 45.796875 27.640625 41.28125 31.265625 
Q 36.765625 34.90625 28.71875 34.90625 
L 20.21875 34.90625 
L 20.21875 43.015625 
L 29.109375 43.015625 
Q 36.375 43.015625 40.234375 45.921875 
Q 44.09375 48.828125 44.09375 54.296875 
Q 44.09375 59.90625 40.109375 62.90625 
Q 36.140625 65.921875 28.71875 65.921875 
Q 24.65625 65.921875 20.015625 65.03125 
Q 15.375 64.15625 9.8125 62.3125 
L 9.8125 71.09375 
Q 15.4375 72.65625 20.34375 73.4375 
Q 25.25 74.21875 29.59375 74.21875 
Q 40.828125 74.21875 47.359375 69.109375 
Q 53.90625 64.015625 53.90625 55.328125 
Q 53.90625 49.265625 50.4375 45.09375 
Q 46.96875 40.921875 40.578125 39.3125 
z
" id="DejaVuSans-33"/>
      </defs>
      <g transform="translate(58.6375 122.712501)scale(0.1 -0.1)">
       <use xlink:href="#DejaVuSans-33"/>
      </g>
     </g>
    </g>
    <g id="ytick_5">
     <g id="line2d_11">
      <g>
       <use style="stroke:#000000;stroke-width:0.8;" x="72" xlink:href="#m53ddd55987" y="76.471044"/>
      </g>
     </g>
     <g id="text_12">
      <!-- 4 -->
      <g transform="translate(58.6375 80.270262)scale(0.1 -0.1)">
       <use xlink:href="#DejaVuSans-34"/>
      </g>
     </g>
    </g>
    <g id="text_13">
     <!-- $p(x)$ -->
     <defs>
      <path d="M 49.609375 33.6875 
Q 49.609375 40.875 46.484375 44.671875 
Q 43.359375 48.484375 37.5 48.484375 
Q 33.5 48.484375 29.859375 46.4375 
Q 26.21875 44.390625 23.390625 40.484375 
Q 20.609375 36.625 18.9375 31.15625 
Q 17.28125 25.6875 17.28125 20.3125 
Q 17.28125 13.484375 20.40625 9.796875 
Q 23.53125 6.109375 29.296875 6.109375 
Q 33.546875 6.109375 37.1875 8.109375 
Q 40.828125 10.109375 43.40625 13.921875 
Q 46.1875 17.921875 47.890625 23.34375 
Q 49.609375 28.765625 49.609375 33.6875 
z
M 21.78125 46.390625 
Q 25.390625 51.125 30.296875 53.5625 
Q 35.203125 56 41.21875 56 
Q 49.609375 56 54.25 50.5 
Q 58.890625 45.015625 58.890625 35.109375 
Q 58.890625 27 56 19.65625 
Q 53.125 12.3125 47.703125 6.5 
Q 44.09375 2.640625 39.546875 0.609375 
Q 35.015625 -1.421875 29.984375 -1.421875 
Q 24.171875 -1.421875 20.21875 1 
Q 16.265625 3.421875 14.3125 8.203125 
L 8.6875 -20.796875 
L -0.296875 -20.796875 
L 14.40625 54.6875 
L 23.390625 54.6875 
z
" id="DejaVuSans-Oblique-70"/>
      <path d="M 31 75.875 
Q 24.46875 64.65625 21.28125 53.65625 
Q 18.109375 42.671875 18.109375 31.390625 
Q 18.109375 20.125 21.3125 9.0625 
Q 24.515625 -2 31 -13.1875 
L 23.1875 -13.1875 
Q 15.875 -1.703125 12.234375 9.375 
Q 8.59375 20.453125 8.59375 31.390625 
Q 8.59375 42.28125 12.203125 53.3125 
Q 15.828125 64.359375 23.1875 75.875 
z
" id="DejaVuSans-28"/>
      <path d="M 8.015625 75.875 
L 15.828125 75.875 
Q 23.140625 64.359375 26.78125 53.3125 
Q 30.421875 42.28125 30.421875 31.390625 
Q 30.421875 20.453125 26.78125 9.375 
Q 23.140625 -1.703125 15.828125 -13.1875 
L 8.015625 -13.1875 
Q 14.5 -2 17.703125 9.0625 
Q 20.90625 20.125 20.90625 31.390625 
Q 20.90625 42.671875 17.703125 53.65625 
Q 14.5 64.65625 8.015625 75.875 
z
" id="DejaVuSans-29"/>
     </defs>
     <g transform="translate(52.5375 155.49)rotate(-90)scale(0.1 -0.1)">
      <use transform="translate(0 0.125)" xlink:href="#DejaVuSans-Oblique-70"/>
      <use transform="translate(63.476562 0.125)" xlink:href="#DejaVuSans-28"/>
      <use transform="translate(102.490234 0.125)" xlink:href="#DejaVuSans-Oblique-78"/>
      <use transform="translate(161.669922 0.125)" xlink:href="#DejaVuSans-29"/>
     </g>
    </g>
   </g>
   <g id="line2d_12">
    <path clip-path="url(#pac7ddf6cd1)" d="M 92.697133 134.855943 
L 93.103358 149.255102 
L 93.509582 156.791508 
L 94.322031 165.446232 
L 95.13448 170.673867 
L 95.946929 174.349153 
L 96.759378 177.14936 
L 97.978051 180.362625 
L 99.196724 182.833021 
L 100.415397 184.823282 
L 102.040295 186.973952 
L 103.665192 188.725985 
L 105.696314 190.52772 
L 107.727437 192.021469 
L 110.164783 193.522121 
L 113.008354 194.980609 
L 116.258149 196.368415 
L 119.914169 197.671194 
L 123.976413 198.883642 
L 128.851106 200.098909 
L 134.538247 201.274661 
L 141.037838 202.385404 
L 148.756102 203.469287 
L 157.693038 204.492049 
L 168.254873 205.467287 
L 180.441605 206.363609 
L 194.659459 207.182458 
L 211.31466 207.912131 
L 230.407207 208.519601 
L 251.937101 208.977147 
L 275.498116 209.252266 
L 300.277805 209.317648 
L 325.057494 209.160293 
L 348.212285 208.796558 
L 369.335954 208.249027 
L 388.022277 207.547302 
L 404.271253 206.716581 
L 418.082883 205.789767 
L 429.863391 204.776393 
L 439.612776 203.720963 
L 447.737265 202.632299 
L 454.643079 201.499646 
L 460.736446 200.281048 
L 466.017363 198.993879 
L 470.485831 197.671194 
L 474.141851 196.368415 
L 477.391646 194.980609 
L 480.235217 193.522121 
L 482.672563 192.021469 
L 484.703686 190.52772 
L 486.734808 188.725985 
L 488.359705 186.973952 
L 489.984603 184.823282 
L 491.203276 182.833021 
L 492.421949 180.362625 
L 493.234398 178.32754 
L 494.046847 175.833966 
L 494.859296 172.650405 
L 495.671744 168.323571 
L 496.484193 161.775828 
L 496.890418 156.791508 
L 497.296642 149.255102 
L 497.702867 134.855943 
L 497.702867 134.855943 
" style="fill:none;opacity:0.7;stroke:#1f77b4;stroke-linecap:square;stroke-width:3;"/>
   </g>
   <g id="line2d_13">
    <path clip-path="url(#pac7ddf6cd1)" d="M 92.290909 246.24 
L 92.697133 244.197696 
L 93.509582 242.296603 
L 94.728256 240.273737 
L 96.353153 238.153513 
L 98.384275 235.957614 
L 100.821622 233.70348 
L 103.665192 231.405652 
L 106.914988 229.076756 
L 110.571007 226.728142 
L 114.633251 224.370296 
L 119.507944 221.809265 
L 124.788862 219.294553 
L 130.476003 216.829124 
L 136.975594 214.264395 
L 143.881409 211.786431 
L 151.193448 209.398473 
L 158.911712 207.105455 
L 167.442424 204.809538 
L 176.379361 202.642718 
L 185.722523 200.611667 
L 195.471908 198.724414 
L 205.627518 196.99024 
L 216.189353 195.419646 
L 226.751188 194.07193 
L 237.719247 192.895858 
L 249.09353 191.906114 
L 260.467813 191.142002 
L 271.842097 190.597251 
L 283.622604 190.259729 
L 295.403112 190.150131 
L 307.18362 190.267563 
L 318.964128 190.612983 
L 330.338411 191.165483 
L 341.712695 191.937533 
L 353.086978 192.935479 
L 364.055037 194.119793 
L 375.023096 195.532381 
L 385.58493 197.120688 
L 395.740541 198.87312 
L 405.489926 200.779351 
L 414.833088 202.830307 
L 423.770025 205.01821 
L 432.300737 207.336705 
L 440.425225 209.781097 
L 447.737265 212.207023 
L 454.643079 214.726889 
L 461.14267 217.338629 
L 466.829812 219.853907 
L 472.110729 222.425742 
L 476.985422 225.05375 
L 481.047666 227.48406 
L 484.703686 229.919377 
L 487.953481 232.355141 
L 490.797052 234.78996 
L 492.828174 236.792122 
L 494.453071 238.644284 
L 495.671744 240.273737 
L 496.890418 242.296603 
L 497.702867 244.197696 
L 498.109091 246.24 
L 498.109091 246.24 
" style="fill:none;opacity:0.7;stroke:#ff7f0e;stroke-linecap:square;stroke-width:3;"/>
   </g>
   <g id="line2d_14">
    <path clip-path="url(#pac7ddf6cd1)" d="M 92.697133 44.64 
L 93.103358 70.84254 
L 93.509582 84.601968 
L 94.322031 100.476082 
L 95.13448 110.127002 
L 95.946929 116.955989 
L 96.759378 122.192552 
L 97.978051 128.249149 
L 99.196724 132.950591 
L 100.415397 136.774865 
L 101.63407 139.988144 
L 103.258968 143.594667 
L 104.883866 146.638684 
L 106.508763 149.268343 
L 108.539885 152.117952 
L 110.571007 154.597121 
L 113.008354 157.200406 
L 115.4457 159.490342 
L 118.289271 161.855404 
L 121.539066 164.243834 
L 125.195086 166.62025 
L 129.25733 168.962078 
L 133.725799 171.256167 
L 138.600491 173.495997 
L 143.881409 175.679549 
L 149.974775 177.952215 
L 156.88059 180.277007 
L 164.598853 182.628726 
L 173.129566 184.991483 
L 182.878952 187.454764 
L 193.847011 189.991196 
L 206.439967 192.667045 
L 220.657821 195.455964 
L 237.313022 198.487119 
L 256.811794 201.798054 
L 279.966585 205.495558 
L 309.620966 209.994655 
L 416.86421 226.050719 
L 436.362981 229.314494 
L 451.393284 232.044835 
L 463.580016 234.478186 
L 472.923178 236.555007 
L 480.235217 238.38614 
L 485.922359 240.016708 
L 490.390827 241.519161 
L 493.640622 242.844557 
L 495.671744 243.882167 
L 496.890418 244.685348 
L 497.702867 245.436129 
L 498.109091 246.24 
L 498.109091 246.24 
" style="fill:none;opacity:0.7;stroke:#2ca02c;stroke-linecap:square;stroke-width:3;"/>
   </g>
   <g id="line2d_15">
    <path clip-path="url(#pac7ddf6cd1)" d="M 92.290909 246.24 
L 92.697133 245.436129 
L 93.509582 244.685348 
L 94.728256 243.882167 
L 96.759378 242.844557 
L 99.602948 241.670782 
L 103.665192 240.271528 
L 108.94611 238.716682 
L 115.4457 237.04129 
L 123.976413 235.086349 
L 134.538247 232.90885 
L 147.537428 230.466307 
L 163.786405 227.651693 
L 184.097625 224.370373 
L 210.908436 220.276811 
L 258.842916 213.228941 
L 302.308927 206.749092 
L 328.713514 202.594569 
L 349.837183 199.05465 
L 367.711057 195.837856 
L 382.74136 192.914841 
L 395.740541 190.170788 
L 407.114824 187.552769 
L 417.270434 184.991483 
L 426.207371 182.510481 
L 433.925635 180.146556 
L 440.83145 177.80776 
L 446.924816 175.519285 
L 452.205733 173.318306 
L 457.080426 171.058025 
L 461.548894 168.739941 
L 465.611138 166.370032 
L 469.267158 163.96094 
L 472.516953 161.534892 
L 475.360524 159.127272 
L 477.797871 156.790497 
L 480.235217 154.126414 
L 482.266339 151.580976 
L 484.297461 148.643823 
L 485.922359 145.921225 
L 487.547256 142.753133 
L 489.172154 138.973427 
L 490.390827 135.578353 
L 491.6095 131.498554 
L 492.828174 126.414381 
L 493.640622 122.192552 
L 494.453071 116.955989 
L 495.26552 110.127002 
L 496.077969 100.476082 
L 496.484193 93.731499 
L 496.890418 84.601968 
L 497.296642 70.84254 
L 497.702867 44.64 
L 497.702867 44.64 
" style="fill:none;opacity:0.7;stroke:#d62728;stroke-linecap:square;stroke-width:3;"/>
   </g>
   <g id="line2d_16">
    <path clip-path="url(#pac7ddf6cd1)" d="M 92.290909 203.797761 
L 498.109091 203.797761 
L 498.109091 203.797761 
" style="fill:none;opacity:0.7;stroke:#9467bd;stroke-linecap:square;stroke-width:3;"/>
   </g>
   <g id="patch_3">
    <path d="M 72 256.32 
L 72 34.56 
" style="fill:none;stroke:#000000;stroke-linecap:square;stroke-linejoin:miter;stroke-width:0.8;"/>
   </g>
   <g id="patch_4">
    <path d="M 518.4 256.32 
L 518.4 34.56 
" style="fill:none;stroke:#000000;stroke-linecap:square;stroke-linejoin:miter;stroke-width:0.8;"/>
   </g>
   <g id="patch_5">
    <path d="M 72 256.32 
L 518.4 256.32 
" style="fill:none;stroke:#000000;stroke-linecap:square;stroke-linejoin:miter;stroke-width:0.8;"/>
   </g>
   <g id="patch_6">
    <path d="M 72 34.56 
L 518.4 34.56 
" style="fill:none;stroke:#000000;stroke-linecap:square;stroke-linejoin:miter;stroke-width:0.8;"/>
   </g>
   <g id="legend_1">
    <g id="patch_7">
     <path d="M 412.001562 115.950625 
L 511.4 115.950625 
Q 513.4 115.950625 513.4 113.950625 
L 513.4 41.56 
Q 513.4 39.56 511.4 39.56 
L 412.001562 39.56 
Q 410.001562 39.56 410.001562 41.56 
L 410.001562 113.950625 
Q 410.001562 115.950625 412.001562 115.950625 
z
" style="fill:#ffffff;opacity:0.8;stroke:#cccccc;stroke-linejoin:miter;"/>
    </g>
    <g id="line2d_17">
     <path d="M 414.001562 47.658437 
L 434.001562 47.658437 
" style="fill:none;opacity:0.7;stroke:#1f77b4;stroke-linecap:square;stroke-width:3;"/>
    </g>
    <g id="line2d_18"/>
    <g id="text_14">
     <!-- a=0.8, b=0.8 -->
     <defs>
      <path d="M 34.28125 27.484375 
Q 23.390625 27.484375 19.1875 25 
Q 14.984375 22.515625 14.984375 16.5 
Q 14.984375 11.71875 18.140625 8.90625 
Q 21.296875 6.109375 26.703125 6.109375 
Q 34.1875 6.109375 38.703125 11.40625 
Q 43.21875 16.703125 43.21875 25.484375 
L 43.21875 27.484375 
z
M 52.203125 31.203125 
L 52.203125 0 
L 43.21875 0 
L 43.21875 8.296875 
Q 40.140625 3.328125 35.546875 0.953125 
Q 30.953125 -1.421875 24.3125 -1.421875 
Q 15.921875 -1.421875 10.953125 3.296875 
Q 6 8.015625 6 15.921875 
Q 6 25.140625 12.171875 29.828125 
Q 18.359375 34.515625 30.609375 34.515625 
L 43.21875 34.515625 
L 43.21875 35.40625 
Q 43.21875 41.609375 39.140625 45 
Q 35.0625 48.390625 27.6875 48.390625 
Q 23 48.390625 18.546875 47.265625 
Q 14.109375 46.140625 10.015625 43.890625 
L 10.015625 52.203125 
Q 14.9375 54.109375 19.578125 55.046875 
Q 24.21875 56 28.609375 56 
Q 40.484375 56 46.34375 49.84375 
Q 52.203125 43.703125 52.203125 31.203125 
z
" id="DejaVuSans-61"/>
      <path d="M 10.59375 45.40625 
L 73.1875 45.40625 
L 73.1875 37.203125 
L 10.59375 37.203125 
z
M 10.59375 25.484375 
L 73.1875 25.484375 
L 73.1875 17.1875 
L 10.59375 17.1875 
z
" id="DejaVuSans-3d"/>
      <path d="M 11.71875 12.40625 
L 22.015625 12.40625 
L 22.015625 4 
L 14.015625 -11.625 
L 7.71875 -11.625 
L 11.71875 4 
z
" id="DejaVuSans-2c"/>
      <path id="DejaVuSans-20"/>
      <path d="M 48.6875 27.296875 
Q 48.6875 37.203125 44.609375 42.84375 
Q 40.53125 48.484375 33.40625 48.484375 
Q 26.265625 48.484375 22.1875 42.84375 
Q 18.109375 37.203125 18.109375 27.296875 
Q 18.109375 17.390625 22.1875 11.75 
Q 26.265625 6.109375 33.40625 6.109375 
Q 40.53125 6.109375 44.609375 11.75 
Q 48.6875 17.390625 48.6875 27.296875 
z
M 18.109375 46.390625 
Q 20.953125 51.265625 25.265625 53.625 
Q 29.59375 56 35.59375 56 
Q 45.5625 56 51.78125 48.09375 
Q 58.015625 40.1875 58.015625 27.296875 
Q 58.015625 14.40625 51.78125 6.484375 
Q 45.5625 -1.421875 35.59375 -1.421875 
Q 29.59375 -1.421875 25.265625 0.953125 
Q 20.953125 3.328125 18.109375 8.203125 
L 18.109375 0 
L 9.078125 0 
L 9.078125 75.984375 
L 18.109375 75.984375 
z
" id="DejaVuSans-62"/>
     </defs>
     <g transform="translate(442.001562 51.158437)scale(0.1 -0.1)">
      <use xlink:href="#DejaVuSans-61"/>
      <use x="61.279297" xlink:href="#DejaVuSans-3d"/>
      <use x="145.068359" xlink:href="#DejaVuSans-30"/>
      <use x="208.691406" xlink:href="#DejaVuSans-2e"/>
      <use x="240.478516" xlink:href="#DejaVuSans-38"/>
      <use x="304.101562" xlink:href="#DejaVuSans-2c"/>
      <use x="335.888672" xlink:href="#DejaVuSans-20"/>
      <use x="367.675781" xlink:href="#DejaVuSans-62"/>
      <use x="431.152344" xlink:href="#DejaVuSans-3d"/>
      <use x="514.941406" xlink:href="#DejaVuSans-30"/>
      <use x="578.564453" xlink:href="#DejaVuSans-2e"/>
      <use x="610.351562" xlink:href="#DejaVuSans-38"/>
     </g>
    </g>
    <g id="line2d_19">
     <path d="M 414.001562 62.336562 
L 434.001562 62.336562 
" style="fill:none;opacity:0.7;stroke:#ff7f0e;stroke-linecap:square;stroke-width:3;"/>
    </g>
    <g id="line2d_20"/>
    <g id="text_15">
     <!-- a=1.6, b=1.6 -->
     <g transform="translate(442.001562 65.836562)scale(0.1 -0.1)">
      <use xlink:href="#DejaVuSans-61"/>
      <use x="61.279297" xlink:href="#DejaVuSans-3d"/>
      <use x="145.068359" xlink:href="#DejaVuSans-31"/>
      <use x="208.691406" xlink:href="#DejaVuSans-2e"/>
      <use x="240.478516" xlink:href="#DejaVuSans-36"/>
      <use x="304.101562" xlink:href="#DejaVuSans-2c"/>
      <use x="335.888672" xlink:href="#DejaVuSans-20"/>
      <use x="367.675781" xlink:href="#DejaVuSans-62"/>
      <use x="431.152344" xlink:href="#DejaVuSans-3d"/>
      <use x="514.941406" xlink:href="#DejaVuSans-31"/>
      <use x="578.564453" xlink:href="#DejaVuSans-2e"/>
      <use x="610.351562" xlink:href="#DejaVuSans-36"/>
     </g>
    </g>
    <g id="line2d_21">
     <path d="M 414.001562 77.014687 
L 434.001562 77.014687 
" style="fill:none;opacity:0.7;stroke:#2ca02c;stroke-linecap:square;stroke-width:3;"/>
    </g>
    <g id="line2d_22"/>
    <g id="text_16">
     <!-- a=0.8, b=1.6 -->
     <g transform="translate(442.001562 80.514687)scale(0.1 -0.1)">
      <use xlink:href="#DejaVuSans-61"/>
      <use x="61.279297" xlink:href="#DejaVuSans-3d"/>
      <use x="145.068359" xlink:href="#DejaVuSans-30"/>
      <use x="208.691406" xlink:href="#DejaVuSans-2e"/>
      <use x="240.478516" xlink:href="#DejaVuSans-38"/>
      <use x="304.101562" xlink:href="#DejaVuSans-2c"/>
      <use x="335.888672" xlink:href="#DejaVuSans-20"/>
      <use x="367.675781" xlink:href="#DejaVuSans-62"/>
      <use x="431.152344" xlink:href="#DejaVuSans-3d"/>
      <use x="514.941406" xlink:href="#DejaVuSans-31"/>
      <use x="578.564453" xlink:href="#DejaVuSans-2e"/>
      <use x="610.351562" xlink:href="#DejaVuSans-36"/>
     </g>
    </g>
    <g id="line2d_23">
     <path d="M 414.001562 91.692813 
L 434.001562 91.692813 
" style="fill:none;opacity:0.7;stroke:#d62728;stroke-linecap:square;stroke-width:3;"/>
    </g>
    <g id="line2d_24"/>
    <g id="text_17">
     <!-- a=1.6, b=0.8 -->
     <g transform="translate(442.001562 95.192813)scale(0.1 -0.1)">
      <use xlink:href="#DejaVuSans-61"/>
      <use x="61.279297" xlink:href="#DejaVuSans-3d"/>
      <use x="145.068359" xlink:href="#DejaVuSans-31"/>
      <use x="208.691406" xlink:href="#DejaVuSans-2e"/>
      <use x="240.478516" xlink:href="#DejaVuSans-36"/>
      <use x="304.101562" xlink:href="#DejaVuSans-2c"/>
      <use x="335.888672" xlink:href="#DejaVuSans-20"/>
      <use x="367.675781" xlink:href="#DejaVuSans-62"/>
      <use x="431.152344" xlink:href="#DejaVuSans-3d"/>
      <use x="514.941406" xlink:href="#DejaVuSans-30"/>
      <use x="578.564453" xlink:href="#DejaVuSans-2e"/>
      <use x="610.351562" xlink:href="#DejaVuSans-38"/>
     </g>
    </g>
    <g id="line2d_25">
     <path d="M 414.001562 106.370937 
L 434.001562 106.370937 
" style="fill:none;opacity:0.7;stroke:#9467bd;stroke-linecap:square;stroke-width:3;"/>
    </g>
    <g id="line2d_26"/>
    <g id="text_18">
     <!-- a=1, b=1 -->
     <g transform="translate(442.001562 109.870937)scale(0.1 -0.1)">
      <use xlink:href="#DejaVuSans-61"/>
      <use x="61.279297" xlink:href="#DejaVuSans-3d"/>
      <use x="145.068359" xlink:href="#DejaVuSans-31"/>
      <use x="208.691406" xlink:href="#DejaVuSans-2c"/>
      <use x="240.478516" xlink:href="#DejaVuSans-20"/>
      <use x="272.265625" xlink:href="#DejaVuSans-62"/>
      <use x="335.742188" xlink:href="#DejaVuSans-3d"/>
      <use x="419.53125" xlink:href="#DejaVuSans-31"/>
     </g>
    </g>
   </g>
  </g>
 </g>
 <defs>
  <clipPath id="pac7ddf6cd1">
   <rect height="221.76" width="446.4" x="72" y="34.56"/>
  </clipPath>
 </defs>
</svg>
